<?xml version="1.0" encoding="UTF-8" standalone="yes"?>
<svg version="1.2" baseProfile="tiny-ps" viewBox="0 0 600 600" xml:space="preserve" xmlns="http://www.w3.org/2000/svg">
  <title>bimi-svg-tiny-12-ps</title>
  <path id="Red_Border_Circle" fill="none" stroke="#ED1C24" stroke-width="8" stroke-miterlimit="10" d="M495,296.1&#xD;&#xA;&#x9;C495,406.7,415.8,495,305.5,495S99,404.6,99,294S189.2,99,299.4,99S495,185.4,495,296.1z"/>
  <g>
    <path fill="#2E3192" d="M226.9,139.9c1.1,2.5,1.8,4.3,2.1,5.4c0.3,1.1,0.4,2.2,0.1,3.4c-0.3,1.1-0.9,2.2-1.8,3.1&#xD;&#xA;&#x9;&#x9;c-0.9,0.9-2.1,1.7-3.5,2.4c-1.4,0.6-2.7,0.9-4,1c-1.3,0-2.5-0.2-3.5-0.8s-1.9-1.4-2.4-2.3c-0.6-1-1.4-2.7-2.5-5.3l-1.9-4.3&#xD;&#xA;&#x9;&#x9;c-1.1-2.5-1.8-4.3-2.1-5.4c-0.3-1.1-0.4-2.2-0.1-3.4c0.3-1.1,0.9-2.2,1.8-3.1s2.1-1.7,3.5-2.4c1.4-0.6,2.7-0.9,4-1&#xD;&#xA;&#x9;&#x9;c1.3,0,2.5,0.2,3.5,0.8c1.1,0.6,1.9,1.4,2.4,2.3c0.6,1,1.4,2.7,2.5,5.3L226.9,139.9z M216.6,134.6c-0.5-1.2-0.9-1.9-1.2-2.1&#xD;&#xA;&#x9;&#x9;s-0.6-0.3-1-0.1c-0.4,0.2-0.6,0.4-0.6,0.7c-0.1,0.3,0.2,1.2,0.7,2.4l5.1,11.7c0.6,1.4,1.1,2.3,1.3,2.6c0.3,0.3,0.6,0.3,1.1,0.1&#xD;&#xA;&#x9;&#x9;c0.5-0.2,0.7-0.5,0.6-1c0-0.4-0.4-1.4-1-2.9L216.6,134.6z"/>
    <path fill="#2E3192" d="M239.3,133.7l-4.5,1.5l-0.4-1.3c-0.2-0.6-0.4-1-0.6-1.1s-0.4-0.2-0.7-0.1c-0.3,0.1-0.5,0.3-0.6,0.6&#xD;&#xA;&#x9;&#x9;c-0.1,0.3,0,0.7,0.1,1.1c0.2,0.6,0.4,1,0.7,1.3c0.3,0.3,0.8,0.5,1.7,0.7c2.6,0.5,4.3,1.1,5.1,1.7c0.8,0.6,1.5,1.8,2.1,3.6&#xD;&#xA;&#x9;&#x9;c0.4,1.3,0.6,2.3,0.5,3s-0.6,1.4-1.3,2.1c-0.8,0.7-1.7,1.3-2.9,1.6c-1.3,0.4-2.5,0.6-3.6,0.4c-1.1-0.2-1.9-0.6-2.4-1.2&#xD;&#xA;&#x9;&#x9;s-1-1.6-1.5-3l-0.4-1.2l4.5-1.5l0.7,2.2c0.2,0.7,0.4,1.1,0.6,1.2c0.2,0.2,0.4,0.2,0.8,0.1s0.5-0.3,0.6-0.6c0.1-0.3,0-0.7-0.1-1.2&#xD;&#xA;&#x9;&#x9;c-0.3-1.1-0.7-1.7-1.1-1.9c-0.4-0.2-1.4-0.5-2.8-0.9c-1.5-0.4-2.5-0.7-3-0.9c-0.5-0.2-1-0.6-1.5-1.1c-0.5-0.5-0.9-1.3-1.2-2.2&#xD;&#xA;&#x9;&#x9;c-0.5-1.4-0.6-2.5-0.4-3.2c0.2-0.8,0.6-1.5,1.3-2.1c0.7-0.6,1.6-1.1,2.8-1.5c1.3-0.4,2.4-0.6,3.4-0.5c1,0.1,1.8,0.4,2.3,0.9&#xD;&#xA;&#x9;&#x9;c0.5,0.5,1,1.5,1.4,2.9L239.3,133.7z"/>
    <path fill="#2E3192" d="M254,132.6l-5,1.2l-0.8-3.2c-0.2-0.9-0.4-1.5-0.6-1.7c-0.2-0.2-0.4-0.3-0.8-0.2c-0.4,0.1-0.6,0.3-0.7,0.6&#xD;&#xA;&#x9;&#x9;s0.1,0.9,0.3,1.9l2.1,8.6c0.2,0.9,0.4,1.5,0.6,1.7c0.2,0.2,0.5,0.3,0.9,0.2c0.4-0.1,0.6-0.3,0.6-0.6c0-0.3-0.1-1-0.3-2l-0.6-2.3&#xD;&#xA;&#x9;&#x9;l5-1.2l0.2,0.7c0.5,1.9,0.7,3.3,0.6,4.2s-0.5,1.7-1.3,2.6c-0.8,0.8-1.9,1.4-3.3,1.8c-1.5,0.4-2.7,0.4-3.8,0.1&#xD;&#xA;&#x9;&#x9;c-1.1-0.3-1.9-0.8-2.4-1.7c-0.5-0.8-1-2.1-1.5-4l-1.3-5.4c-0.3-1.3-0.5-2.3-0.6-3c-0.1-0.7,0.1-1.4,0.4-2.1&#xD;&#xA;&#x9;&#x9;c0.3-0.7,0.9-1.4,1.6-1.9c0.7-0.6,1.7-1,2.7-1.2c1.5-0.4,2.8-0.4,3.8-0.1c1.1,0.3,1.9,0.8,2.4,1.6c0.5,0.7,1,2,1.4,3.7L254,132.6z"/>
    <path fill="#2E3192" d="M254.7,124l8.5-1.5l0.7,3.8l-3.4,0.6l0.6,3.6l3.2-0.6l0.6,3.6l-3.2,0.6l0.7,4.1l3.7-0.7l0.7,3.8l-8.8,1.6&#xD;&#xA;&#x9;&#x9;L254.7,124z"/>
    <path fill="#2E3192" d="M278.7,131.9c0.2,1.9,0.3,3.3,0.3,4.1s-0.2,1.6-0.6,2.3c-0.4,0.7-1,1.3-1.8,1.7c-0.8,0.4-1.7,0.7-2.9,0.9&#xD;&#xA;&#x9;&#x9;c-1.1,0.1-2,0.1-2.9-0.2c-0.9-0.2-1.6-0.7-2.2-1.3c-0.6-0.6-1-1.3-1.2-2.1c-0.2-0.8-0.4-2.1-0.6-4.1l-0.4-3.2&#xD;&#xA;&#x9;&#x9;c-0.2-1.9-0.3-3.3-0.3-4.1s0.2-1.6,0.6-2.3c0.4-0.7,1-1.3,1.8-1.7c0.8-0.4,1.7-0.7,2.9-0.9c1.1-0.1,2-0.1,2.9,0.2s1.6,0.7,2.2,1.3&#xD;&#xA;&#x9;&#x9;c0.6,0.6,1,1.3,1.2,2.1c0.2,0.8,0.4,2.1,0.6,4.1L278.7,131.9z M272.9,126.2c-0.1-0.9-0.2-1.4-0.3-1.7c-0.1-0.2-0.4-0.3-0.7-0.3&#xD;&#xA;&#x9;&#x9;c-0.3,0-0.5,0.2-0.6,0.4c-0.1,0.2-0.1,0.8,0,1.8l1,8.8c0.1,1.1,0.2,1.8,0.4,2c0.1,0.2,0.4,0.4,0.7,0.3c0.3,0,0.6-0.2,0.6-0.5&#xD;&#xA;&#x9;&#x9;s0-1-0.1-2.1L272.9,126.2z"/>
    <path fill="#2E3192" d="M285.3,120.4l0.8,15.2l3.1-0.2l0.2,3.8l-8.3,0.4l-1-19L285.3,120.4z"/>
    <path fill="#2E3192" d="M300,120.2l2.8,19.1l-5.3,0l-0.2-3.4l-1.8,0l-0.3,3.4l-5.3,0l2.8-19L300,120.2z M297.1,132.5&#xD;&#xA;&#x9;&#x9;c-0.2-2.2-0.5-4.8-0.7-8c-0.6,3.6-0.9,6.3-1.1,8L297.1,132.5z"/>
    <path fill="#2E3192" d="M325.5,114.1l1,27.5l-7.5-0.9l0.2-4.9l-2.6-0.3l-1,4.8l-7.6-0.9l6.9-26.6L325.5,114.1z M319.6,131.1&#xD;&#xA;&#x9;&#x9;c0-3.1,0.1-6.9,0.2-11.5c-1.3,5.1-2.3,8.8-2.7,11.2L319.6,131.1z"/>
    <path fill="#2E3192" d="M332.7,115.2l5.1,1.1c3.4,0.7,5.7,1.3,6.8,1.8s2,1.3,2.5,2.5s0.6,2.9,0.1,5.2c-0.4,2.1-1,3.4-1.7,4&#xD;&#xA;&#x9;&#x9;c-0.7,0.6-1.8,0.8-3.4,0.6c1.4,0.6,2.2,1.3,2.6,2c0.4,0.7,0.6,1.3,0.6,1.8c0,0.5-0.2,1.8-0.6,4l-1.5,7l-6.7-1.4l1.8-8.9&#xD;&#xA;&#x9;&#x9;c0.3-1.4,0.4-2.3,0.2-2.7c-0.2-0.4-0.7-0.7-1.7-0.9l-2.5,12l-7.2-1.5L332.7,115.2z M339,121.2l-1.2,5.9c0.8,0.2,1.4,0.2,1.8,0&#xD;&#xA;&#x9;&#x9;c0.4-0.1,0.7-0.8,0.9-2l0.3-1.5c0.2-0.8,0.1-1.4-0.1-1.8C340.4,121.7,339.8,121.4,339,121.2z"/>
    <path fill="#2E3192" d="M353.2,119.7l11.8,3.4l-1.5,5.2l-4.7-1.4l-1.4,5l4.4,1.3l-1.4,5l-4.4-1.3l-1.7,5.7l5.2,1.5l-1.5,5.2&#xD;&#xA;&#x9;&#x9;l-12.2-3.6L353.2,119.7z"/>
    <path fill="#2E3192" d="M380.6,137.6l-6.4-2.4l0.7-1.9c0.3-0.9,0.5-1.5,0.4-1.8s-0.3-0.5-0.7-0.7c-0.4-0.2-0.8-0.1-1.1,0.1&#xD;&#xA;&#x9;&#x9;c-0.3,0.2-0.6,0.7-0.9,1.4c-0.3,0.8-0.4,1.5-0.4,2.1c0.1,0.5,0.5,1.3,1.4,2.3c2.4,2.9,3.8,5.1,4.2,6.5c0.4,1.4,0.1,3.4-0.9,5.9&#xD;&#xA;&#x9;&#x9;c-0.7,1.8-1.4,3.1-2.2,3.8c-0.8,0.7-1.9,1.1-3.4,1.2c-1.5,0.1-3.1-0.2-4.7-0.8c-1.8-0.7-3.3-1.6-4.3-2.8c-1-1.2-1.6-2.3-1.6-3.5&#xD;&#xA;&#x9;&#x9;c0-1.2,0.3-2.7,1.1-4.6l0.6-1.7l6.4,2.4l-1.2,3.1c-0.4,1-0.5,1.6-0.4,1.9c0.1,0.3,0.3,0.6,0.8,0.8c0.5,0.2,0.9,0.1,1.2-0.1&#xD;&#xA;&#x9;&#x9;s0.7-0.7,0.9-1.4c0.6-1.5,0.7-2.6,0.5-3.2c-0.3-0.6-1-1.8-2.3-3.5c-1.3-1.7-2.1-3-2.5-3.7c-0.4-0.7-0.6-1.6-0.6-2.6&#xD;&#xA;&#x9;&#x9;c0-1,0.2-2.2,0.7-3.5c0.7-1.9,1.5-3.3,2.4-4c0.9-0.7,2-1.1,3.3-1.2c1.3-0.1,2.8,0.2,4.5,0.8c1.8,0.7,3.2,1.5,4.2,2.6&#xD;&#xA;&#x9;&#x9;c1,1,1.6,2,1.7,3c0.1,1-0.2,2.5-1,4.5L380.6,137.6z"/>
  </g>
  <g id="Osceola_County">
    <path fill="#662D91" d="M367.5,181.2c0.1,0,0.2,0,0.3-0.1l0.3-0.2c0.2-0.1,0.3-0.4,0.2-0.7c-0.1-0.2-0.4-0.3-0.7-0.2l-0.3,0.2&#xD;&#xA;&#x9;&#x9;c-0.2,0.1-0.3,0.4-0.2,0.7C367.2,181.1,367.4,181.2,367.5,181.2z"/>
    <path fill="#662D91" d="M426.2,387.5c-0.1-0.2-0.3-0.3-0.5-0.2l0.4-0.3c0.2-0.2,0.3-0.5,0.1-0.7c-0.2-0.2-0.4-0.3-0.7-0.1l-1.4,0.9&#xD;&#xA;&#x9;&#x9;l2-1.4c0.2-0.2,0.3-0.5,0.1-0.7c-0.1-0.2-0.4-0.3-0.7-0.2l-3.9,2.4l4.5-3.2c0.2-0.2,0.3-0.5,0.1-0.7c-0.1-0.2-0.4-0.3-0.7-0.2&#xD;&#xA;&#x9;&#x9;l-1.2,0.7l1.7-1.1c0.2-0.2,0.3-0.5,0.1-0.7c-0.1-0.2-0.4-0.3-0.7-0.2l-5.4,3.2l5.9-4.1c0.2-0.2,0.3-0.5,0.1-0.7&#xD;&#xA;&#x9;&#x9;c-0.1-0.2-0.4-0.3-0.7-0.2l-8.6,5.2l9.1-6.3c0.2-0.2,0.3-0.5,0.1-0.7c-0.1-0.2-0.4-0.3-0.7-0.2l-4.9,2.9l5.4-3.6&#xD;&#xA;&#x9;&#x9;c0.2-0.2,0.3-0.5,0.1-0.7c-0.1-0.2-0.4-0.3-0.7-0.2l-7.2,4.3l7.7-5.1c0.2-0.1,0.3-0.5,0.1-0.7c-0.1-0.2-0.4-0.3-0.7-0.2l-1.8,1.1&#xD;&#xA;&#x9;&#x9;l2.4-1.5c0.2-0.1,0.3-0.5,0.2-0.7c-0.1-0.2-0.4-0.3-0.7-0.2l-2.8,1.7l3.4-2.1c0.2-0.1,0.3-0.5,0.2-0.7c-0.1-0.2-0.4-0.3-0.7-0.2&#xD;&#xA;&#x9;&#x9;l-10.8,6.5l11.3-7.3c0.2-0.1,0.3-0.5,0.2-0.7c-0.1-0.2-0.4-0.3-0.7-0.2l-12.8,7.7l13.3-8.6c0.2-0.1,0.3-0.5,0.2-0.7&#xD;&#xA;&#x9;&#x9;c-0.1-0.2-0.4-0.3-0.7-0.2l-17,10.2l17.5-11.4c0.2-0.1,0.3-0.5,0.2-0.7c-0.1-0.2-0.4-0.3-0.7-0.2l-12.2,7.3l11.5-7.4&#xD;&#xA;&#x9;&#x9;c0.2-0.1,0.3-0.5,0.2-0.7c-0.1-0.2-0.4-0.3-0.7-0.2l-20.1,12.1l19.9-12.9c0.2-0.1,0.3-0.5,0.2-0.7c-0.1-0.2-0.4-0.3-0.7-0.2&#xD;&#xA;&#x9;&#x9;l-20.2,12.1l20.7-13.3c0.2-0.1,0.3-0.5,0.2-0.7c-0.1-0.2-0.4-0.3-0.7-0.2l-0.9,0.5l1.4-0.9c0.2-0.1,0.3-0.5,0.2-0.7&#xD;&#xA;&#x9;&#x9;c-0.1-0.2-0.4-0.3-0.7-0.2l-12.8,7.7l13.3-8.4c0.2-0.1,0.3-0.5,0.2-0.7c-0.1-0.2-0.4-0.3-0.7-0.2L413,366l11-6.9&#xD;&#xA;&#x9;&#x9;c0.2-0.1,0.3-0.5,0.2-0.7c-0.1-0.2-0.4-0.3-0.7-0.2l-24.9,14.9l25.4-16.1c0.2-0.1,0.3-0.5,0.2-0.7c-0.1-0.2-0.4-0.3-0.7-0.2&#xD;&#xA;&#x9;&#x9;l-14.6,8.8l15.1-9.4c0.2-0.1,0.3-0.5,0.2-0.7c-0.1-0.2-0.4-0.3-0.7-0.2l-24.4,14.6l24.9-15.7c0.2-0.1,0.3-0.5,0.2-0.7&#xD;&#xA;&#x9;&#x9;c-0.1-0.2-0.4-0.3-0.7-0.2l-67.4,40.5l-0.8-0.8c-0.2-0.2-0.4-0.2-0.6-0.1l-0.7,0.4c-0.2,0.1-0.3,0.5-0.2,0.7&#xD;&#xA;&#x9;&#x9;c0.1,0.2,0.4,0.3,0.7,0.2l0.3-0.2l0.8,0.8c0.2,0.2,0.4,0.2,0.6,0.1l27.5-16.5l-24.9,15.7c-0.2,0.1-0.3,0.5-0.2,0.7&#xD;&#xA;&#x9;&#x9;c0.1,0.2,0.4,0.3,0.7,0.2l17.1-10.2l-15,9.4c-0.2,0.1-0.3,0.5-0.2,0.7c0.1,0.2,0.4,0.3,0.7,0.2l28.3-17l-25.4,16.2&#xD;&#xA;&#x9;&#x9;c-0.2,0.1-0.3,0.5-0.2,0.7c0.1,0.2,0.4,0.3,0.7,0.2l12.8-7.7l-11,6.9c-0.2,0.1-0.3,0.5-0.2,0.7c0.1,0.2,0.4,0.3,0.7,0.2l15.3-9.2&#xD;&#xA;&#x9;&#x9;l-13.3,8.4c-0.2,0.1-0.3,0.5-0.2,0.7c0.1,0.2,0.4,0.3,0.7,0.2l2.8-1.7l-1.4,0.9c-0.2,0.1-0.3,0.5-0.2,0.7c0.1,0.2,0.4,0.3,0.7,0.2&#xD;&#xA;&#x9;&#x9;l23.5-14.1L375,393.6c-0.2,0.1-0.3,0.5-0.2,0.7c0.1,0.2,0.4,0.3,0.7,0.2l22.8-13.7l-19.9,12.9c-0.2,0.1-0.3,0.5-0.2,0.7&#xD;&#xA;&#x9;&#x9;c0.1,0.2,0.4,0.3,0.7,0.2l13.7-8.2l-11.6,7.4c-0.2,0.1-0.3,0.5-0.2,0.7c0.1,0.2,0.4,0.3,0.7,0.2l20.3-12.2l-17.5,11.4&#xD;&#xA;&#x9;&#x9;c-0.2,0.1-0.3,0.5-0.2,0.7c0.1,0.2,0.4,0.3,0.7,0.2l15.7-9.5l-13.3,8.6c-0.2,0.1-0.3,0.5-0.2,0.7c0.1,0.2,0.4,0.3,0.7,0.2l13.6-8.2&#xD;&#xA;&#x9;&#x9;l-11.3,7.3c-0.2,0.1-0.3,0.5-0.2,0.7c0.1,0.2,0.4,0.3,0.7,0.2l5-3l-3.4,2.2c-0.2,0.1-0.3,0.5-0.2,0.7c0.1,0.2,0.4,0.3,0.7,0.2&#xD;&#xA;&#x9;&#x9;l4.1-2.5l-2.4,1.5c-0.2,0.1-0.3,0.5-0.2,0.7c0.1,0.2,0.4,0.3,0.7,0.2l9.7-5.8l-7.7,5.1c-0.2,0.1-0.3,0.5-0.1,0.7&#xD;&#xA;&#x9;&#x9;c0.1,0.2,0.4,0.3,0.7,0.2l7.4-4.5l-5.4,3.6c-0.2,0.2-0.3,0.5-0.1,0.7c0.1,0.2,0.4,0.3,0.7,0.2l12-7.2l-9.1,6.3&#xD;&#xA;&#x9;&#x9;c-0.2,0.2-0.3,0.5-0.1,0.7c0.1,0.2,0.4,0.3,0.7,0.2l8.3-5l-5.9,4.1c-0.2,0.2-0.3,0.5-0.1,0.7c0.1,0.2,0.4,0.3,0.7,0.2l3.1-1.9&#xD;&#xA;&#x9;&#x9;l-1.7,1.1c-0.2,0.2-0.3,0.5-0.1,0.7c0.1,0.2,0.4,0.3,0.7,0.2l6.7-4l-4.5,3.2c-0.2,0.2-0.3,0.5-0.1,0.7c0.1,0.2,0.4,0.3,0.7,0.2&#xD;&#xA;&#x9;&#x9;l3.7-2.2l-2,1.4c-0.2,0.2-0.3,0.5-0.1,0.7c0.1,0.2,0.4,0.3,0.7,0.2l6-3.6l-3.5,2.8c-0.2,0.2-0.2,0.5-0.1,0.7&#xD;&#xA;&#x9;&#x9;c0.1,0.2,0.4,0.3,0.7,0.1l4.6-2.7l-2.1,2c-0.2,0.2-0.2,0.5-0.1,0.7c0.2,0.2,0.4,0.3,0.7,0.1l2.8-1.7l-0.9,0.9&#xD;&#xA;&#x9;&#x9;c-0.2,0.2-0.2,0.5,0,0.7c0.2,0.2,0.4,0.3,0.7,0.1l2.1-1.3l-0.4,0.6c-0.1,0.2-0.1,0.5,0.1,0.6c0.1,0.1,0.2,0.2,0.4,0.2&#xD;&#xA;&#x9;&#x9;c0.1,0,0.2,0,0.3-0.1l1.5-0.9c0.2-0.1,0.3-0.4,0.2-0.7c-0.1-0.2-0.3-0.2-0.4-0.2l0.4-0.7c0.1-0.2,0.1-0.5-0.1-0.6&#xD;&#xA;&#x9;&#x9;c-0.2-0.2-0.4-0.2-0.6-0.1l-0.3,0.2l0.9-0.9c0.2-0.2,0.2-0.5,0-0.7c-0.2-0.2-0.4-0.3-0.7-0.1l-2.4,1.5l2.1-2&#xD;&#xA;&#x9;&#x9;c0.2-0.2,0.2-0.5,0.1-0.7l0.8-0.5C426.3,388,426.4,387.7,426.2,387.5z M422.6,389.7l1.8-1.5c0,0.1,0,0.2,0.1,0.3c0,0,0,0,0,0&#xD;&#xA;&#x9;&#x9;L422.6,389.7z"/>
    <path fill="#662D91" d="M429.5,207.5c-0.1-0.2-0.4-0.3-0.7-0.2l-24.2,14.5l24.7-15.1c0.2-0.1,0.3-0.5,0.2-0.7&#xD;&#xA;&#x9;&#x9;c-0.1-0.2-0.4-0.3-0.7-0.2l-54.3,32.6l54.8-33.7c0.2-0.1,0.3-0.5,0.2-0.7c-0.1-0.2-0.4-0.3-0.7-0.2l-65.6,39.4l66.1-40.8&#xD;&#xA;&#x9;&#x9;c0.2-0.1,0.3-0.5,0.2-0.7c-0.1-0.2-0.4-0.3-0.7-0.2l-67.2,40.4l67.7-41.7c0.2-0.1,0.3-0.5,0.2-0.7c-0.1-0.2-0.4-0.3-0.7-0.2&#xD;&#xA;&#x9;&#x9;L289.8,283l0.3-0.4c0.1-0.2,0.1-0.5,0-0.6c-0.1-0.2-0.3-0.2-0.5-0.1l0.1-0.1c0.2-0.2,0.2-0.5,0.1-0.7c-0.2-0.2-0.4-0.3-0.7-0.1&#xD;&#xA;&#x9;&#x9;l-4.8,2.9l3.7-3.4c0.2-0.2,0.2-0.5,0.1-0.7c-0.2-0.2-0.4-0.3-0.7-0.1l-1.9,1.1l1.9-1.5c0.2-0.2,0.2-0.5,0.1-0.7&#xD;&#xA;&#x9;&#x9;c-0.2-0.2-0.4-0.3-0.7-0.1l-3,1.8l2.9-2.5c0.2-0.2,0.2-0.5,0.1-0.7c-0.2-0.2-0.4-0.3-0.7-0.1l-2.9,1.8l1.2-1&#xD;&#xA;&#x9;&#x9;c0.2-0.2,0.2-0.5,0.1-0.7c-0.2-0.2-0.4-0.3-0.7-0.1l-2.7,1.6l1.9-2.1c0.2-0.2,0.2-0.5,0-0.7c-0.2-0.2-0.4-0.2-0.6-0.1l-1,0.6&#xD;&#xA;&#x9;&#x9;l0.7-0.6c0.2-0.2,0.2-0.5,0.1-0.7c-0.2-0.2-0.4-0.3-0.7-0.1l-2.3,1.4l1.3-1.4c0.2-0.2,0.2-0.5,0-0.7c-0.2-0.2-0.4-0.2-0.6-0.1&#xD;&#xA;&#x9;&#x9;l-2.5,1.5l1-1.4c0.1-0.2,0.1-0.5,0-0.6c-0.2-0.2-0.4-0.2-0.6-0.1l-0.8,0.5l0.6-0.7c0.2-0.2,0.2-0.5,0-0.6c-0.2-0.2-0.4-0.2-0.6-0.1&#xD;&#xA;&#x9;&#x9;l-0.7,0.4l0.6-0.5c0.2-0.2,0.2-0.5,0.1-0.7c-0.2-0.2-0.4-0.3-0.7-0.1l-1.6,1l2-2c0.2-0.2,0.2-0.5,0-0.7c-0.2-0.2-0.4-0.2-0.6-0.1&#xD;&#xA;&#x9;&#x9;l-2.6,1.6l2.2-2.2c0.2-0.2,0.2-0.5,0-0.7c-0.2-0.2-0.4-0.2-0.7-0.1l-3.8,2.3l0.9-1.7c0.1-0.2,0.1-0.4-0.1-0.6&#xD;&#xA;&#x9;&#x9;c-0.2-0.2-0.4-0.2-0.6-0.1l-1.3,0.8c-0.2,0.1-0.3,0.4-0.2,0.7c0.1,0.2,0.3,0.2,0.4,0.2l-1,1.8c-0.1,0.2-0.1,0.4,0.1,0.6&#xD;&#xA;&#x9;&#x9;c0.2,0.2,0.4,0.2,0.6,0.1l2-1.2l-2.2,2.2c-0.2,0.2-0.2,0.5,0,0.7c0.2,0.2,0.4,0.2,0.7,0.1l2.8-1.7l-2,2c-0.2,0.2-0.2,0.5,0,0.7&#xD;&#xA;&#x9;&#x9;c0.2,0.2,0.4,0.2,0.6,0.1l0.9-0.5l-0.6,0.5c-0.2,0.2-0.2,0.5-0.1,0.7c0.2,0.2,0.4,0.3,0.7,0.1l2.3-1.4l-0.6,0.7&#xD;&#xA;&#x9;&#x9;c-0.2,0.2-0.2,0.5,0,0.6c0.2,0.2,0.4,0.2,0.6,0.1l1.4-0.8l-1,1.4c-0.1,0.2-0.1,0.5,0,0.6c0.2,0.2,0.4,0.2,0.6,0.1l1.4-0.8l-1.3,1.4&#xD;&#xA;&#x9;&#x9;c-0.2,0.2-0.2,0.5,0,0.7c0.2,0.2,0.4,0.2,0.6,0.1l1-0.6l-0.7,0.6c-0.2,0.2-0.2,0.5-0.1,0.7c0.2,0.2,0.4,0.3,0.7,0.1l2.4-1.4&#xD;&#xA;&#x9;&#x9;l-1.9,2.1c-0.2,0.2-0.2,0.5,0,0.7c0.2,0.2,0.4,0.2,0.6,0.1l1-0.6l-1.2,1c-0.2,0.2-0.2,0.5-0.1,0.7c0.2,0.2,0.4,0.3,0.7,0.1l2.8-1.7&#xD;&#xA;&#x9;&#x9;l-2.9,2.5c-0.2,0.2-0.2,0.5-0.1,0.7c0.2,0.2,0.4,0.3,0.7,0.1l1.8-1.1l-1.9,1.5c-0.2,0.2-0.2,0.5-0.1,0.7c0.2,0.2,0.4,0.3,0.7,0.1&#xD;&#xA;&#x9;&#x9;l3.6-2.2l-3.2,2.9c-0.2,0.2-0.2,0.5-0.1,0.7c0.1,0.1,0.2,0.2,0.4,0.2c0.1,0,0.2,0,0.3-0.1l0.8-0.5c0.1,0,0.1-0.1,0.2-0.2&#xD;&#xA;&#x9;&#x9;c0.1,0.1,0.3,0.1,0.5,0l2.4-1.4l0,0c-0.2,0.2-0.2,0.5-0.1,0.7c0.2,0.2,0.4,0.3,0.7,0.1l2.5-1.5l-0.3,0.4c-0.1,0.2-0.1,0.5,0,0.6&#xD;&#xA;&#x9;&#x9;c0.2,0.2,0.4,0.2,0.6,0.1l68.2-41l-67.6,41.7c-0.2,0.1-0.3,0.5-0.2,0.7c0.1,0.2,0.4,0.3,0.7,0.2l66.9-40.2l-66.1,40.8&#xD;&#xA;&#x9;&#x9;c-0.2,0.1-0.3,0.5-0.2,0.7c0.1,0.2,0.4,0.3,0.7,0.2l54.3-32.6l-54.7,33.6c-0.2,0.1-0.3,0.5-0.2,0.7c0.1,0.2,0.4,0.3,0.7,0.2&#xD;&#xA;&#x9;&#x9;l24.3-14.6l-24.8,15.1l0,0c-0.2,0.1-0.3,0.5-0.2,0.7c0.1,0.2,0.4,0.3,0.7,0.2l40.5-24.3l-40,24.5l0,0c-0.2,0.1-0.3,0.5-0.2,0.7&#xD;&#xA;&#x9;&#x9;c0.1,0.2,0.4,0.3,0.7,0.2l27.3-16.4l-26.5,16.2c-0.2,0.1-0.3,0.5-0.2,0.7c0.1,0.2,0.5,0.3,0.7,0.2l37.8-22.7l-37.5,23&#xD;&#xA;&#x9;&#x9;c-0.2,0.1-0.3,0.5-0.2,0.7c0.1,0.2,0.5,0.3,0.7,0.2l55.8-33.5l-54.6,33.6c-0.2,0.1-0.3,0.5-0.2,0.7c0.1,0.2,0.4,0.3,0.7,0.2l6-3.6&#xD;&#xA;&#x9;&#x9;l-5.5,3.4c-0.2,0.1-0.3,0.5-0.2,0.7c0.1,0.2,0.4,0.3,0.7,0.2l57-34.3l-56.1,34.6c-0.2,0.1-0.3,0.5-0.2,0.7c0.1,0.2,0.4,0.3,0.7,0.2&#xD;&#xA;&#x9;&#x9;l53.8-32.4l-53.2,32.8c-0.2,0.1-0.3,0.5-0.2,0.7c0.1,0.2,0.4,0.3,0.7,0.2l17.7-10.6l-18.2,11.2c-0.2,0.1-0.3,0.5-0.2,0.7&#xD;&#xA;&#x9;&#x9;c0.1,0.2,0.4,0.3,0.7,0.2l60.9-36.6l-60,37.1c-0.2,0.1-0.3,0.5-0.2,0.7c0.1,0.2,0.4,0.3,0.7,0.2l33.1-19.9l-32.1,19.7&#xD;&#xA;&#x9;&#x9;c-0.2,0.1-0.3,0.5-0.2,0.7c0.1,0.2,0.4,0.3,0.7,0.2l59.8-35.9l-60.1,37.2c-0.2,0.1-0.3,0.5-0.2,0.7c0,0.1,0.1,0.1,0.2,0.2l-1.2,0.7&#xD;&#xA;&#x9;&#x9;l0-0.5c0-0.2-0.1-0.4-0.2-0.5c-0.2-0.1-0.4-0.1-0.5,0l-0.8,0.5c-0.2,0.1-0.3,0.4-0.2,0.7c0.1,0.2,0.4,0.3,0.7,0.2l0,0l0,0.5&#xD;&#xA;&#x9;&#x9;c0,0.2,0.1,0.4,0.2,0.5c0.2,0.1,0.4,0.1,0.5,0l22-13.2l-21.6,13.2c-0.2,0.1-0.3,0.5-0.2,0.7c0.1,0.2,0.4,0.3,0.7,0.2l16.1-9.6&#xD;&#xA;&#x9;&#x9;l-15,9.2c-0.2,0.1-0.3,0.5-0.2,0.7c0.1,0.2,0.4,0.3,0.7,0.2l48.1-28.9L304.2,307c-0.2,0.1-0.3,0.5-0.2,0.7c0.1,0.2,0.4,0.3,0.7,0.2&#xD;&#xA;&#x9;&#x9;l18.3-11l-17.6,10.7c-0.2,0.1-0.3,0.5-0.2,0.7c0.1,0.2,0.4,0.3,0.7,0.2l1.3-0.8c0,0.1,0,0.1,0,0.2l-0.6,0.4&#xD;&#xA;&#x9;&#x9;c-0.2,0.1-0.3,0.5-0.2,0.7c0.1,0.2,0.3,0.2,0.4,0.2c0.1,0,0.2,0,0.3-0.1l0.3-0.2c0,0,0,0,0,0l31.5-19.3l5.4-3.2l-35.8,22&#xD;&#xA;&#x9;&#x9;c-0.2,0.1-0.3,0.5-0.2,0.7c0.1,0.2,0.4,0.3,0.7,0.2l25.8-15.5l-25.7,15.7c-0.2,0.1-0.3,0.5-0.2,0.7c0.1,0.2,0.5,0.3,0.7,0.2&#xD;&#xA;&#x9;&#x9;l29.1-17.5L309.2,311c-0.2,0.1-0.3,0.5-0.2,0.7c0.1,0.2,0.5,0.3,0.7,0.2l26.3-15.8l-27.4,16.8c-0.2,0.1-0.3,0.5-0.2,0.7&#xD;&#xA;&#x9;&#x9;c0.1,0.2,0.4,0.3,0.7,0.2l47.5-28.5l-48.6,30c-0.2,0.1-0.3,0.5-0.2,0.7c0.1,0.2,0.4,0.3,0.7,0.2l41.6-25l-41.8,25.7&#xD;&#xA;&#x9;&#x9;c-0.2,0.1-0.3,0.5-0.2,0.7c0.1,0.2,0.4,0.3,0.7,0.2l55.8-33.5l-55.4,34.3c-0.2,0.1-0.3,0.5-0.2,0.7c0.1,0.2,0.4,0.3,0.7,0.2&#xD;&#xA;&#x9;&#x9;l47.7-28.7L310,320c-0.2,0.1-0.3,0.5-0.2,0.7c0.1,0.2,0.4,0.3,0.7,0.2l31-18.6l-31.1,19.1c-0.2,0.1-0.3,0.5-0.2,0.7&#xD;&#xA;&#x9;&#x9;c0.1,0.2,0.4,0.3,0.7,0.2l43.6-26.2l-44.3,27.3c-0.2,0.1-0.3,0.5-0.2,0.7c0.1,0.2,0.4,0.3,0.7,0.2l57.7-34.6l-57.3,35.6&#xD;&#xA;&#x9;&#x9;c-0.2,0.1-0.3,0.5-0.2,0.7c0.1,0.2,0.4,0.3,0.7,0.2l41.5-24.9l-41.2,25.4c-0.1,0.1-0.1,0.1-0.2,0.2c0,0-0.1,0-0.1,0.1l-0.4,0.3&#xD;&#xA;&#x9;&#x9;c-0.2,0.1-0.3,0.5-0.2,0.7c0.1,0.2,0.4,0.3,0.7,0.2l0,0l0.6,1c0.1,0.2,0.4,0.3,0.7,0.2l30.4-18.2l-29.3,18&#xD;&#xA;&#x9;&#x9;c-0.2,0.1-0.3,0.5-0.2,0.7c0.1,0.2,0.4,0.3,0.7,0.2l40.2-24.2l-38.1,23.5c-0.2,0.1-0.3,0.5-0.2,0.7c0.1,0.2,0.4,0.3,0.7,0.2&#xD;&#xA;&#x9;&#x9;l54.8-33l-54.1,33.7c-0.2,0.1-0.3,0.5-0.2,0.7c0.1,0.2,0.4,0.3,0.7,0.2l18.1-10.9L319.3,331c-0.2,0.1-0.3,0.5-0.2,0.7&#xD;&#xA;&#x9;&#x9;c0.1,0.2,0.4,0.3,0.7,0.2l44.6-26.8l-43.1,26.7c-0.2,0.1-0.3,0.5-0.2,0.7c0.1,0.2,0.4,0.3,0.7,0.2l11.9-7.2l-9.5,5.8&#xD;&#xA;&#x9;&#x9;c-0.2,0.1-0.3,0.5-0.2,0.7c0.1,0.2,0.4,0.3,0.7,0.2l20.8-12.5l-4.8,3l-14.6,8.8c-0.1,0.1-0.2,0.2-0.2,0.4l-1.2,0.7&#xD;&#xA;&#x9;&#x9;c-0.2,0.1-0.3,0.5-0.2,0.7c0.1,0.2,0.3,0.2,0.4,0.2c0.1,0,0.2,0,0.3-0.1l0.7-0.4c0,0,0.1,0,0.1-0.1l1-0.6c-0.1,0.1-0.1,0.3,0,0.4&#xD;&#xA;&#x9;&#x9;c0.1,0.2,0.4,0.3,0.7,0.2l33.2-19.9l-31.9,19.7c-0.2,0.1-0.3,0.5-0.2,0.7c0.1,0.2,0.4,0.3,0.7,0.2l47.4-28.5l-46,28.7&#xD;&#xA;&#x9;&#x9;c-0.2,0.1-0.3,0.5-0.2,0.7c0.1,0.2,0.4,0.3,0.7,0.2l26.4-15.8l-25.9,16c-0.2,0.1-0.3,0.5-0.2,0.7c0.1,0.2,0.4,0.3,0.7,0.2&#xD;&#xA;&#x9;&#x9;l17.1-10.3l-16.8,10.3c-0.2,0.1-0.3,0.5-0.2,0.7c0.1,0.2,0.4,0.3,0.7,0.2l1.1-0.7l-0.9,0.6c-0.2,0.1-0.3,0.5-0.2,0.7&#xD;&#xA;&#x9;&#x9;c0.1,0.2,0.4,0.3,0.7,0.2l33.7-20.3l-33.2,20.6c-0.2,0.1-0.3,0.5-0.2,0.7c0.1,0.2,0.4,0.3,0.7,0.2l21.7-13l-22,13.6&#xD;&#xA;&#x9;&#x9;c-0.2,0.1-0.3,0.5-0.2,0.7c0.1,0.2,0.4,0.3,0.7,0.2l41.5-24.9l-40.6,25.4c-0.2,0.1-0.3,0.5-0.2,0.7c0.1,0.2,0.4,0.3,0.7,0.2&#xD;&#xA;&#x9;&#x9;l27.8-16.7L336.1,342c-0.2,0.1-0.3,0.5-0.2,0.7c0.1,0.2,0.4,0.3,0.7,0.2l41.2-24.7l-40.5,25.3c-0.2,0.1-0.3,0.5-0.2,0.7&#xD;&#xA;&#x9;&#x9;c0.1,0.2,0.4,0.3,0.7,0.2l37.9-22.8l-37.7,23.5c-0.2,0.1-0.3,0.5-0.2,0.7c0.1,0.2,0.4,0.3,0.7,0.2l8.1-4.9l-8.6,5.3&#xD;&#xA;&#x9;&#x9;c-0.2,0.1-0.3,0.5-0.2,0.7c0.1,0.2,0.4,0.3,0.7,0.2l10.1-6.1l-9.9,6.1c-0.2,0.1-0.3,0.5-0.2,0.7c0.1,0.2,0.4,0.3,0.7,0.2l12.5-7.5&#xD;&#xA;&#x9;&#x9;l-12.6,7.8c-0.2,0.1-0.3,0.5-0.2,0.7c0.1,0.2,0.4,0.3,0.7,0.2l29.3-17.6l-29.2,18.1c-0.2,0.1-0.3,0.5-0.2,0.7&#xD;&#xA;&#x9;&#x9;c0.1,0.2,0.4,0.3,0.7,0.2l32.5-19.5l-31.8,19.8c-0.2,0.1-0.3,0.5-0.2,0.7c0.1,0.2,0.4,0.3,0.7,0.2l11.9-7.2l-11.8,7.3&#xD;&#xA;&#x9;&#x9;c-0.2,0.1-0.3,0.5-0.2,0.7c0.1,0.2,0.4,0.3,0.7,0.2l25.4-15.2L342,353.2c-0.2,0.1-0.3,0.5-0.2,0.7c0.1,0.2,0.4,0.3,0.7,0.2&#xD;&#xA;&#x9;&#x9;l32.1-19.3l-31.5,19.6c-0.2,0.1-0.3,0.5-0.2,0.7c0.1,0.2,0.4,0.3,0.7,0.2l32.4-19.5l-32,20c-0.2,0.1-0.3,0.5-0.2,0.7&#xD;&#xA;&#x9;&#x9;c0.1,0.2,0.4,0.3,0.7,0.2l22.5-13.5L345,356.8c-0.2,0.1-0.3,0.5-0.2,0.7c0.1,0.2,0.4,0.3,0.7,0.2l9.3-5.6l-10.4,6.4&#xD;&#xA;&#x9;&#x9;c-0.2,0.1-0.3,0.5-0.2,0.7c0.1,0.2,0.4,0.3,0.7,0.2l28.6-17.2l-29.4,18.3c-0.2,0.1-0.3,0.5-0.2,0.7c0.1,0.2,0.4,0.3,0.7,0.2&#xD;&#xA;&#x9;&#x9;l39.1-23.5l-38.5,24.2c-0.2,0.1-0.3,0.5-0.2,0.7c0.1,0.2,0.4,0.3,0.7,0.2l35.2-21.2l-34.2,21.4c-0.2,0.1-0.3,0.5-0.2,0.7&#xD;&#xA;&#x9;&#x9;c0.1,0.2,0.4,0.3,0.7,0.2l35-21l-34.4,21.6c-0.2,0.1-0.3,0.5-0.2,0.7c0.1,0.2,0.4,0.3,0.7,0.2L374,350l-27.3,17&#xD;&#xA;&#x9;&#x9;c-0.2,0.1-0.3,0.5-0.2,0.7c0.1,0.2,0.4,0.3,0.7,0.2l37.2-22.4L347.1,369c-0.2,0.1-0.3,0.5-0.2,0.7c0.1,0.2,0.4,0.3,0.7,0.2l8.2-4.9&#xD;&#xA;&#x9;&#x9;l-6.9,4.2c-0.2,0.1-0.3,0.5-0.2,0.7c0.1,0.2,0.5,0.3,0.7,0.2l9.7-5.8l-9.8,6.1c-0.2,0.1-0.3,0.5-0.2,0.7c0.1,0.2,0.4,0.3,0.7,0.2&#xD;&#xA;&#x9;&#x9;l19.4-11.7l-18.1,11.2c-0.2,0.1-0.3,0.5-0.2,0.7c0.1,0.2,0.4,0.3,0.7,0.2l22.6-13.6l-22.4,14c-0.2,0.1-0.3,0.5-0.2,0.7&#xD;&#xA;&#x9;&#x9;c0.1,0.2,0.4,0.3,0.7,0.2l30.6-18.4l-30,18.8c-0.2,0.1-0.3,0.5-0.2,0.7c0.1,0.2,0.4,0.3,0.7,0.2l20.7-12.4l-22,13.7&#xD;&#xA;&#x9;&#x9;c-0.2,0.1-0.3,0.5-0.2,0.7c0.1,0.2,0.4,0.3,0.7,0.2l35.9-21.5l-36,22.8c-0.2,0.1-0.3,0.5-0.2,0.7c0.1,0.2,0.4,0.3,0.7,0.2l16.7-10&#xD;&#xA;&#x9;&#x9;L352.3,379c-0.2,0.1-0.3,0.5-0.2,0.7c0.1,0.2,0.4,0.3,0.7,0.2l18.3-11l-18.4,11.5c-0.2,0.1-0.3,0.5-0.2,0.7&#xD;&#xA;&#x9;&#x9;c0.1,0.2,0.4,0.3,0.7,0.2l30.6-18.4L353.3,382c-0.2,0.1-0.3,0.5-0.2,0.7c0.1,0.2,0.4,0.3,0.7,0.2l30.7-18.5l-31.4,19.8&#xD;&#xA;&#x9;&#x9;c-0.2,0.1-0.3,0.5-0.2,0.7c0.1,0.2,0.4,0.3,0.7,0.2l32.6-19.6L354,385.9c-0.2,0.1-0.3,0.5-0.2,0.7c0.1,0.2,0.4,0.3,0.7,0.2l31.6-19&#xD;&#xA;&#x9;&#x9;l-30.6,19.3c-0.2,0.1-0.3,0.5-0.2,0.7c0.1,0.2,0.4,0.3,0.7,0.2l32.5-19.5l-31.9,20.2c-0.2,0.1-0.3,0.5-0.2,0.7&#xD;&#xA;&#x9;&#x9;c0.1,0.2,0.4,0.3,0.7,0.2l15.3-9.2l-15.9,9.9c-0.2,0.1-0.3,0.5-0.2,0.7c0.1,0.2,0.4,0.3,0.7,0.2l14.7-8.8l-15.3,9.5&#xD;&#xA;&#x9;&#x9;c-0.2,0.1-0.3,0.5-0.2,0.7c0.1,0.2,0.3,0.2,0.4,0.2c0.1,0,0.2,0,0.3-0.1l66.9-40.2c0.2-0.1,0.3-0.4,0.2-0.7&#xD;&#xA;&#x9;&#x9;c-0.1-0.2-0.4-0.3-0.7-0.2l-14.8,8.9l15.3-9.5c0.2-0.1,0.3-0.5,0.2-0.7c-0.1-0.2-0.4-0.3-0.7-0.2l-15.4,9.3l15.9-9.9&#xD;&#xA;&#x9;&#x9;c0.2-0.1,0.3-0.5,0.2-0.7c-0.1-0.2-0.4-0.3-0.7-0.2l-31.3,18.8l31.9-20.2c0.2-0.1,0.3-0.5,0.2-0.7c-0.1-0.2-0.4-0.3-0.7-0.2&#xD;&#xA;&#x9;&#x9;l-30.1,18.1l30.6-19.3c0.2-0.1,0.3-0.5,0.2-0.7c-0.1-0.2-0.4-0.3-0.7-0.2l-31.8,19.1l32.3-20.4c0.2-0.1,0.3-0.5,0.2-0.7&#xD;&#xA;&#x9;&#x9;c-0.1-0.2-0.4-0.3-0.7-0.2l-30.9,18.6l31.4-19.8c0.2-0.1,0.3-0.4,0.2-0.6c0.1,0,0.2,0,0.3-0.1l1.8-1.1l-0.1,0.5&#xD;&#xA;&#x9;&#x9;c-0.1,0.2,0,0.4,0.2,0.5c0.1,0.1,0.2,0.1,0.3,0.1c0.1,0,0.2,0,0.3-0.1l0.5-0.3c0.2-0.1,0.3-0.4,0.2-0.7c0-0.1-0.1-0.1-0.2-0.2&#xD;&#xA;&#x9;&#x9;l0.2-0.9c0.1-0.2,0-0.4-0.2-0.5c-0.2-0.1-0.4-0.1-0.6,0l-2.8,1.7c-0.2,0.1-0.3,0.4-0.2,0.6c-0.1,0-0.2,0-0.3,0.1L396.6,356&#xD;&#xA;&#x9;&#x9;l30.6-19.2c0.2-0.1,0.3-0.5,0.2-0.7c-0.1-0.2-0.4-0.3-0.7-0.2l-17.9,10.7l18.4-11.4c0.2-0.1,0.3-0.5,0.2-0.7&#xD;&#xA;&#x9;&#x9;c-0.1-0.2-0.4-0.3-0.7-0.2l-16.8,10.1l17.3-10.7c0.2-0.1,0.3-0.5,0.2-0.7c-0.1-0.2-0.4-0.3-0.7-0.2l-35.5,21.3l36-22.8&#xD;&#xA;&#x9;&#x9;c0.2-0.1,0.3-0.5,0.2-0.7c-0.1-0.2-0.4-0.3-0.7-0.2l-21.5,12.9l22.1-13.7c0.2-0.1,0.3-0.5,0.2-0.7c-0.1-0.2-0.4-0.3-0.7-0.2&#xD;&#xA;&#x9;&#x9;l-29.4,17.7l30-18.8c0.2-0.1,0.3-0.5,0.2-0.7c-0.1-0.2-0.4-0.3-0.7-0.2l-21.9,13.2l22.4-14c0.2-0.1,0.3-0.5,0.2-0.7&#xD;&#xA;&#x9;&#x9;c-0.1-0.2-0.4-0.3-0.7-0.2L409,335.9l18.1-11.3c0.2-0.1,0.3-0.5,0.2-0.7c-0.1-0.2-0.4-0.3-0.7-0.2l-9.3,5.6l9.8-6.1&#xD;&#xA;&#x9;&#x9;c0.2-0.1,0.3-0.5,0.2-0.7c-0.1-0.2-0.4-0.3-0.7-0.2l-6.3,3.8l6.9-4.2c0.2-0.1,0.3-0.5,0.2-0.7c-0.1-0.2-0.4-0.3-0.7-0.2l-36.9,22.1&#xD;&#xA;&#x9;&#x9;l37.4-23.5c0.2-0.1,0.3-0.5,0.2-0.7c-0.1-0.2-0.4-0.3-0.7-0.2l-26.8,16.1l27.3-17c0.2-0.1,0.3-0.5,0.2-0.7&#xD;&#xA;&#x9;&#x9;c-0.1-0.2-0.4-0.3-0.7-0.2l-33.9,20.3l34.4-21.6c0.2-0.1,0.3-0.5,0.2-0.7c-0.1-0.2-0.4-0.3-0.7-0.2l-33.7,20.3l34.2-21.4&#xD;&#xA;&#x9;&#x9;c0.2-0.1,0.3-0.5,0.2-0.7c-0.1-0.2-0.4-0.3-0.7-0.2l-38,22.8l38.5-24.2c0.2-0.1,0.3-0.5,0.2-0.7c-0.1-0.2-0.4-0.3-0.7-0.2&#xD;&#xA;&#x9;&#x9;l-28.8,17.3l29.3-18.3c0.2-0.1,0.3-0.5,0.2-0.7c-0.1-0.2-0.4-0.3-0.7-0.2l-9.9,6l10.5-6.5c0.2-0.1,0.3-0.5,0.2-0.7&#xD;&#xA;&#x9;&#x9;c-0.1-0.2-0.4-0.3-0.7-0.2l-21.6,13l22.1-13.7c0.2-0.1,0.3-0.5,0.2-0.7c-0.1-0.2-0.4-0.3-0.7-0.2l-31.5,18.9l32-20&#xD;&#xA;&#x9;&#x9;c0.2-0.1,0.3-0.5,0.2-0.7c-0.1-0.2-0.4-0.3-0.7-0.2l-30.9,18.6l31.5-19.6c0.2-0.1,0.3-0.5,0.2-0.7c-0.1-0.2-0.4-0.3-0.7-0.2&#xD;&#xA;&#x9;&#x9;l-25.2,15.1l25.7-15.9c0.2-0.1,0.3-0.5,0.2-0.7c-0.1-0.2-0.4-0.3-0.7-0.2l-11.3,6.8l11.8-7.3c0.2-0.1,0.3-0.5,0.2-0.7&#xD;&#xA;&#x9;&#x9;c-0.1-0.2-0.4-0.3-0.7-0.2l-31.2,18.8l31.7-19.8c0.2-0.1,0.3-0.5,0.2-0.7c-0.1-0.2-0.4-0.3-0.7-0.2l-28.7,17.2l29.2-18.1&#xD;&#xA;&#x9;&#x9;c0.2-0.1,0.3-0.5,0.2-0.7c-0.1-0.2-0.4-0.3-0.7-0.2l-12.1,7.3l12.6-7.8c0.2-0.1,0.3-0.5,0.2-0.7c-0.1-0.2-0.4-0.3-0.7-0.2l-9.4,5.7&#xD;&#xA;&#x9;&#x9;l9.9-6.1c0.2-0.1,0.3-0.5,0.2-0.7c-0.1-0.2-0.4-0.3-0.7-0.2l-8,4.8l8.5-5.3c0.2-0.1,0.3-0.5,0.2-0.7c-0.1-0.2-0.4-0.3-0.7-0.2&#xD;&#xA;&#x9;&#x9;l-37.2,22.3l37.7-23.5c0.2-0.1,0.3-0.5,0.2-0.7c-0.1-0.2-0.4-0.3-0.7-0.2l-39.9,24l40.4-25.3c0.2-0.1,0.3-0.5,0.2-0.7&#xD;&#xA;&#x9;&#x9;c-0.1-0.2-0.4-0.3-0.7-0.2l-27.9,16.8l28.5-17.6c0.2-0.1,0.3-0.5,0.2-0.7c-0.1-0.2-0.4-0.3-0.7-0.2L386.4,310l40.6-25.4&#xD;&#xA;&#x9;&#x9;c0.2-0.1,0.3-0.5,0.2-0.7c-0.1-0.2-0.4-0.3-0.7-0.2l-21.5,12.9l22-13.6c0.2-0.1,0.3-0.5,0.2-0.7c-0.1-0.2-0.4-0.3-0.7-0.2&#xD;&#xA;&#x9;&#x9;l-32.7,19.6l33.2-20.6c0.2-0.1,0.3-0.5,0.2-0.7c-0.1-0.2-0.4-0.3-0.7-0.2l-0.4,0.2l0.9-0.6c0.2-0.1,0.3-0.5,0.2-0.7&#xD;&#xA;&#x9;&#x9;c-0.1-0.2-0.4-0.3-0.7-0.2l-16.2,9.7l16.7-10.3c0.2-0.1,0.3-0.5,0.2-0.7c-0.1-0.2-0.4-0.3-0.7-0.2l-25.3,15.2l25.9-16&#xD;&#xA;&#x9;&#x9;c0.2-0.1,0.3-0.5,0.2-0.7c-0.1-0.2-0.4-0.3-0.7-0.2l-45.5,27.3l46-28.7c0.2-0.1,0.3-0.5,0.2-0.7c-0.1-0.2-0.4-0.3-0.7-0.2&#xD;&#xA;&#x9;&#x9;l-31.4,18.9l31.9-19.7c0.2-0.1,0.3-0.5,0.2-0.7c-0.1-0.2-0.4-0.3-0.7-0.2l-5.5,3.3l6-3.7c0.2-0.1,0.3-0.5,0.2-0.7&#xD;&#xA;&#x9;&#x9;c-0.1-0.2-0.4-0.3-0.7-0.2l-4.3,2.6l4.8-2.9c0.2-0.1,0.3-0.5,0.2-0.7c-0.1-0.2-0.4-0.3-0.7-0.2l-9.1,5.4l9.6-5.9&#xD;&#xA;&#x9;&#x9;c0.2-0.1,0.3-0.5,0.2-0.7c-0.1-0.2-0.4-0.3-0.7-0.2L384,294.1l43.1-26.7c0.2-0.1,0.3-0.5,0.2-0.7c-0.1-0.2-0.4-0.3-0.7-0.2&#xD;&#xA;&#x9;&#x9;l-16.8,10.1l17.3-10.6c0.2-0.1,0.3-0.5,0.2-0.7c-0.1-0.2-0.4-0.3-0.7-0.2L373,297.3l54.1-33.6c0.2-0.1,0.3-0.5,0.2-0.7&#xD;&#xA;&#x9;&#x9;c-0.1-0.2-0.4-0.3-0.7-0.2L389,285.4l38.1-23.5c0.2-0.1,0.3-0.5,0.2-0.7c-0.1-0.2-0.4-0.3-0.7-0.2l-27.1,16.3l27.4-16.8&#xD;&#xA;&#x9;&#x9;c0,0,0,0.1,0,0.1c0.1,0.2,0.3,0.2,0.4,0.2c0.1,0,0.2,0,0.3-0.1l1.2-0.7c0.2-0.1,0.3-0.4,0.2-0.7c0-0.1-0.1-0.1-0.1-0.1&#xD;&#xA;&#x9;&#x9;c0.2-0.2,0.2-0.4,0.1-0.6c-0.1-0.2-0.4-0.3-0.7-0.2l-115.4,69.4l-0.4-0.6l116.3-69.9c0.2-0.1,0.3-0.4,0.2-0.7&#xD;&#xA;&#x9;&#x9;c-0.1-0.2-0.4-0.3-0.7-0.2l-40.7,24.5l41.2-25.4c0.2-0.1,0.3-0.5,0.2-0.7c-0.1-0.2-0.4-0.3-0.7-0.2l-56.8,34.2l57.3-35.6&#xD;&#xA;&#x9;&#x9;c0.2-0.1,0.3-0.5,0.2-0.7c-0.1-0.2-0.4-0.3-0.7-0.2l-43.8,26.3l44.3-27.3c0.2-0.1,0.3-0.5,0.2-0.7c-0.1-0.2-0.4-0.3-0.7-0.2&#xD;&#xA;&#x9;&#x9;l-30.6,18.4l31.1-19.1c0.2-0.1,0.3-0.5,0.2-0.7c-0.1-0.2-0.4-0.3-0.7-0.2l-47,28.2l47.5-29.3c0.2-0.1,0.3-0.5,0.2-0.7&#xD;&#xA;&#x9;&#x9;c-0.1-0.2-0.4-0.3-0.7-0.2l-54.9,33l55.4-34.3c0.2-0.1,0.3-0.5,0.2-0.7c-0.1-0.2-0.4-0.3-0.7-0.2L387,269.6l41.8-25.7&#xD;&#xA;&#x9;&#x9;c0.2-0.1,0.3-0.5,0.2-0.7c-0.1-0.2-0.4-0.3-0.7-0.2l-48.1,28.9l48.6-30c0.2-0.1,0.3-0.5,0.2-0.7c-0.1-0.2-0.4-0.3-0.7-0.2&#xD;&#xA;&#x9;&#x9;l-26.9,16.2l27.5-16.8c0.2-0.1,0.3-0.5,0.2-0.7c-0.1-0.2-0.4-0.3-0.7-0.2L399,257.1l29.7-18.3c0.2-0.1,0.3-0.5,0.2-0.7&#xD;&#xA;&#x9;&#x9;c-0.1-0.2-0.4-0.3-0.7-0.2l-25.1,15.1l25.6-15.7c0.2-0.1,0.3-0.5,0.2-0.7c-0.1-0.2-0.4-0.3-0.7-0.2l-35.3,21.2l35.8-22&#xD;&#xA;&#x9;&#x9;c0.2-0.1,0.3-0.5,0.2-0.7c-0.1-0.1-0.2-0.2-0.3-0.2l0.1-0.1c0.2-0.1,0.3-0.5,0.2-0.7c-0.1-0.2-0.4-0.3-0.7-0.2l-17,10.2l17.5-10.7&#xD;&#xA;&#x9;&#x9;c0.2-0.1,0.3-0.5,0.2-0.7c-0.1-0.2-0.4-0.3-0.7-0.2l-46.2,27.8l46.8-28.8c0.2-0.1,0.3-0.5,0.2-0.7c-0.1-0.2-0.4-0.3-0.7-0.2&#xD;&#xA;&#x9;&#x9;l-14.5,8.7l15-9.2c0.2-0.1,0.3-0.5,0.2-0.7c-0.1-0.2-0.4-0.3-0.7-0.2L407.1,242l21.6-13.2c0.2-0.1,0.3-0.5,0.2-0.7&#xD;&#xA;&#x9;&#x9;c0-0.1-0.1-0.1-0.2-0.2l0,0c0.2-0.1,0.3-0.4,0.2-0.7c-0.1-0.2-0.4-0.3-0.7-0.2l-59.6,35.8l60.1-37.2c0.2-0.1,0.3-0.5,0.2-0.7&#xD;&#xA;&#x9;&#x9;c-0.1-0.2-0.4-0.3-0.7-0.2l-31.6,19l32.1-19.7c0.2-0.1,0.3-0.5,0.2-0.7c-0.1-0.2-0.4-0.3-0.7-0.2L368.6,259l60.1-37.1&#xD;&#xA;&#x9;&#x9;c0.2-0.1,0.3-0.5,0.2-0.7c-0.1-0.2-0.4-0.3-0.7-0.2l-17.7,10.6l18.2-11.1c0.2-0.1,0.3-0.5,0.2-0.7c-0.1-0.2-0.4-0.3-0.7-0.2&#xD;&#xA;&#x9;&#x9;l-52.7,31.6l53.2-32.8c0.2-0.1,0.3-0.5,0.2-0.7c-0.1-0.2-0.4-0.3-0.7-0.2L372.7,251l56-34.5c0.2-0.1,0.3-0.5,0.2-0.7&#xD;&#xA;&#x9;&#x9;c-0.1-0.2-0.4-0.3-0.7-0.2l-5.1,3l5.6-3.4c0.2-0.1,0.3-0.5,0.2-0.7c-0.1-0.2-0.4-0.3-0.7-0.2l-54.1,32.5l54.6-33.6&#xD;&#xA;&#x9;&#x9;c0.2-0.1,0.3-0.5,0.2-0.7c-0.1-0.2-0.4-0.3-0.7-0.2l-36.9,22.2l37.5-23c0.2-0.1,0.3-0.5,0.2-0.7c-0.1-0.2-0.4-0.3-0.7-0.2&#xD;&#xA;&#x9;&#x9;l-25.7,15.4l26.5-16.2c0.2-0.1,0.3-0.5,0.2-0.7c-0.1-0.2-0.4-0.3-0.7-0.2l-39.3,23.6l40-24.5C429.5,208.1,429.6,207.8,429.5,207.5z&#xD;&#xA;&#x9;&#x9;"/>
    <path fill="#662D91" d="M408.5,181.6l0.3,1.2c0,0.2,0.2,0.3,0.3,0.3c0.1,0.1,0.3,0,0.4,0l0.1-0.1l-0.2,0.2c-0.2,0.2-0.2,0.5,0,0.7&#xD;&#xA;&#x9;&#x9;c0.2,0.2,0.4,0.2,0.6,0.1l1.9-1.1l-1.6,1.9c-0.2,0.2-0.2,0.5,0,0.6c0.2,0.2,0.4,0.2,0.6,0.1l1.2-0.7l-1.2,1&#xD;&#xA;&#x9;&#x9;c-0.2,0.2-0.2,0.5-0.1,0.7c0.1,0.1,0.3,0.2,0.4,0.2c0.1,0,0.2,0,0.3-0.1l8.8-5.3c0.2-0.1,0.3-0.4,0.2-0.7c-0.1-0.2-0.4-0.3-0.7-0.2&#xD;&#xA;&#x9;&#x9;l-3,1.8l1.2-1c0.2-0.2,0.2-0.5,0.1-0.7c-0.2-0.2-0.4-0.3-0.7-0.1l-4.4,2.6l1.6-1.9c0.2-0.2,0.2-0.5,0-0.6c-0.2-0.2-0.4-0.2-0.6-0.1&#xD;&#xA;&#x9;&#x9;l-1.6,1l0.2-0.2c0.2-0.2,0.2-0.5,0-0.7c-0.2-0.2-0.4-0.2-0.6-0.1l-2.4,1.5l-0.3-1.2c0-0.2-0.2-0.3-0.3-0.3c-0.1-0.1-0.3,0-0.4,0&#xD;&#xA;&#x9;&#x9;l-0.4,0.2c-0.2,0.1-0.3,0.4-0.2,0.7C408.1,181.5,408.3,181.6,408.5,181.6z"/>
    <path fill="#662D91" d="M405.9,187.6l-1.8,1.8c-0.2,0.2-0.2,0.5,0,0.7c0.2,0.2,0.4,0.2,0.6,0.1l1.5-0.9l-2.3,2.1&#xD;&#xA;&#x9;&#x9;c-0.2,0.2-0.2,0.5-0.1,0.7c0.1,0.1,0.2,0.2,0.4,0.2c0.1,0,0.2,0,0.3-0.1l18.2-10.9c0.2-0.1,0.3-0.4,0.2-0.7&#xD;&#xA;&#x9;&#x9;c-0.1-0.2-0.4-0.3-0.7-0.2l-13.9,8.4l2.3-2.1c0.2-0.2,0.2-0.5,0.1-0.7c-0.2-0.2-0.4-0.3-0.7-0.1l-2.6,1.6l1.6-1.6&#xD;&#xA;&#x9;&#x9;c0.2-0.2,0.2-0.5,0-0.7c-0.2-0.2-0.4-0.2-0.6-0.1l-2.7,1.6c-0.2,0.1-0.3,0.4-0.2,0.7C405.6,187.5,405.8,187.6,405.9,187.6z"/>
    <path fill="#662D91" d="M396.3,196.4l-1,0.6c-0.2,0.1-0.3,0.4-0.2,0.7c0.1,0.2,0.3,0.2,0.4,0.2c0.1,0,0.2,0,0.3-0.1l1-0.6&#xD;&#xA;&#x9;&#x9;c0.2-0.1,0.3-0.4,0.2-0.7C396.8,196.3,396.5,196.2,396.3,196.4z"/>
    <path fill="#662D91" d="M383,181.7c0.1,0,0.2,0,0.3-0.1l0.5-0.3c0.2-0.1,0.3-0.4,0.2-0.7c-0.1-0.2-0.4-0.3-0.7-0.2l-0.5,0.3&#xD;&#xA;&#x9;&#x9;c-0.2,0.1-0.3,0.4-0.2,0.7C382.6,181.6,382.8,181.7,383,181.7z"/>
    <path fill="#662D91" d="M377.3,181.6c0.1,0,0.2,0,0.3-0.1l0.7-0.4c0.2-0.1,0.3-0.4,0.2-0.7c-0.1-0.2-0.5-0.3-0.7-0.2l-0.7,0.4&#xD;&#xA;&#x9;&#x9;c-0.2,0.1-0.3,0.4-0.2,0.7C376.9,181.5,377.1,181.6,377.3,181.6z"/>
    <path fill="#662D91" d="M362.9,220.6c0.2,0.2,0.4,0.2,0.6,0.1l0.7-0.4l-0.7,1.7c-0.1,0.2,0,0.4,0.1,0.6c0.2,0.1,0.4,0.2,0.6,0.1&#xD;&#xA;&#x9;&#x9;l0,0l-0.2,0.2c-0.1,0.2-0.1,0.5,0,0.6c0.2,0.2,0.4,0.2,0.6,0.1l-0.7,0.9c-0.1,0.2-0.1,0.5,0,0.6c0.1,0.1,0.3,0.2,0.5,0.1l-0.3,0.3&#xD;&#xA;&#x9;&#x9;c-0.2,0.2-0.2,0.5-0.1,0.7c0.2,0.2,0.4,0.3,0.7,0.1l1-0.6l-1.2,1.2c-0.2,0.2-0.2,0.5,0,0.7c0.1,0.1,0.2,0.2,0.4,0.2&#xD;&#xA;&#x9;&#x9;c0.1,0,0.2,0,0.3-0.1l4.3-2.6c0.2-0.1,0.3-0.4,0.2-0.7c-0.1-0.2-0.4-0.3-0.7-0.2l-1.1,0.7l1.2-1.2c0.2-0.2,0.2-0.5,0-0.7&#xD;&#xA;&#x9;&#x9;c-0.1-0.2-0.3-0.2-0.5-0.2l0.3-0.3c0.2-0.2,0.2-0.5,0.1-0.7c-0.2-0.2-0.4-0.3-0.7-0.1l-1.9,1.1l0.7-0.9c0,0,0,0,0,0&#xD;&#xA;&#x9;&#x9;c0.1,0.1,0.2,0.1,0.3,0.1c0.1,0,0.2,0,0.3-0.1l0.3-0.2c0.2-0.1,0.3-0.4,0.2-0.7c-0.1-0.2-0.5-0.3-0.7-0.2l-0.3,0.2&#xD;&#xA;&#x9;&#x9;c-0.1,0-0.1,0.1-0.2,0.1c-0.2-0.1-0.4-0.1-0.6,0l0,0l0.2-0.2c0-0.1,0.1-0.1,0.1-0.2c0.1,0.1,0.2,0.1,0.3,0.1c0.1,0,0.2,0,0.3-0.1&#xD;&#xA;&#x9;&#x9;l0.4-0.3c0.2-0.1,0.3-0.4,0.2-0.7c-0.1-0.2-0.5-0.3-0.7-0.2l-0.4,0.3c-0.1,0.1-0.2,0.2-0.2,0.3c-0.2-0.1-0.4-0.2-0.6-0.1l-0.9,0.5&#xD;&#xA;&#x9;&#x9;l0.7-1.7c0.1-0.2,0-0.4-0.1-0.6c-0.2-0.1-0.4-0.2-0.6-0.1l-0.6,0.4l0.7-1.3c0.1-0.2,0.1-0.4-0.1-0.6c-0.2-0.2-0.4-0.2-0.6-0.1&#xD;&#xA;&#x9;&#x9;l-0.3,0.2l0.3-1.2c0-0.2,0-0.4-0.2-0.5c-0.2-0.1-0.4-0.1-0.6,0l-0.8,0.5c-0.2,0.1-0.3,0.4-0.2,0.7c0.1,0.2,0.3,0.3,0.5,0.2&#xD;&#xA;&#x9;&#x9;l-0.3,1.3c0,0.2,0,0.4,0.2,0.5c0.1,0.1,0.3,0.1,0.4,0.1l-0.7,1.4C362.7,220.3,362.7,220.5,362.9,220.6z"/>
    <path fill="#662D91" d="M269.4,243.3l23.3-14l-22.4,13.9c-0.2,0.1-0.3,0.5-0.2,0.7c0.1,0.2,0.4,0.3,0.7,0.2l30.4-18.3L270.2,245&#xD;&#xA;&#x9;&#x9;c-0.2,0.1-0.3,0.5-0.2,0.7c0.1,0.2,0.4,0.3,0.7,0.2l27.8-16.7l-28.3,17.6c-0.2,0.1-0.3,0.5-0.2,0.7c0.1,0.2,0.4,0.3,0.7,0.2&#xD;&#xA;&#x9;&#x9;l24.8-14.9l-25.3,15.7c-0.2,0.1-0.3,0.5-0.2,0.7c0.1,0.2,0.4,0.3,0.7,0.2l39.4-23.7l-39.9,24.9c-0.2,0.1-0.3,0.5-0.2,0.7&#xD;&#xA;&#x9;&#x9;c0.1,0.2,0.4,0.3,0.7,0.2l36.7-22.1l-37.2,23.2c-0.2,0.1-0.3,0.5-0.2,0.7c0.1,0.2,0.4,0.3,0.7,0.2l5.7-3.4l-6.2,3.8&#xD;&#xA;&#x9;&#x9;c-0.2,0.1-0.3,0.5-0.2,0.7c0.1,0.2,0.4,0.3,0.7,0.2l21.9-13.2l-22.4,13.9c-0.2,0.1-0.3,0.5-0.2,0.7c0.1,0.2,0.4,0.3,0.7,0.2&#xD;&#xA;&#x9;&#x9;l11.6-6.9l-12.1,7.4c-0.2,0.1-0.3,0.5-0.2,0.7c0.1,0.2,0.4,0.3,0.7,0.2l40.8-24.5l-41.4,25.8c-0.2,0.1-0.3,0.5-0.2,0.7&#xD;&#xA;&#x9;&#x9;c0.1,0.2,0.4,0.3,0.7,0.2l44.5-26.7L272,259.8c-0.2,0.1-0.3,0.5-0.2,0.7c0.1,0.2,0.3,0.2,0.4,0.2c0.1,0,0.2,0,0.3-0.1l1.8-1.1&#xD;&#xA;&#x9;&#x9;l-0.4,0.2c-0.2,0.1-0.3,0.5-0.2,0.7c0.1,0.2,0.4,0.3,0.7,0.2l38.7-23.3l-35.7,22.4c-0.2,0.1-0.3,0.5-0.2,0.7&#xD;&#xA;&#x9;&#x9;c0.1,0.2,0.4,0.3,0.7,0.2l19.1-11.5l-15.5,9.6l-0.5,0.3c0,0,0,0,0,0l-1,0.6c-0.2,0.1-0.3,0.5-0.2,0.7c0.1,0.2,0.4,0.3,0.7,0.2&#xD;&#xA;&#x9;&#x9;l0.5-0.3c0,0,0.1,0,0.1-0.1l1-0.6l18.5-11.1l-18.2,11.3c-0.2,0.1-0.3,0.5-0.2,0.7c0.1,0.2,0.4,0.3,0.7,0.2l28.9-17.3l-26.3,16.5&#xD;&#xA;&#x9;&#x9;c-0.2,0.1-0.3,0.5-0.2,0.7c0.1,0.2,0.4,0.3,0.7,0.2l28.2-16.9l-25.6,16.1c-0.2,0.1-0.3,0.5-0.2,0.7c0.1,0.2,0.4,0.3,0.7,0.2&#xD;&#xA;&#x9;&#x9;l29.4-17.7l-26.7,16.8c-0.2,0.1-0.3,0.5-0.2,0.7c0.1,0.2,0.4,0.3,0.7,0.2l19.8-11.9l-17.6,11c-0.2,0.1-0.3,0.5-0.2,0.7&#xD;&#xA;&#x9;&#x9;c0.1,0.2,0.4,0.3,0.7,0.2l29.2-17.6l-26.4,16.7c-0.2,0.1-0.3,0.5-0.2,0.7c0.1,0.2,0.4,0.3,0.7,0.2l15.8-9.5l-15.3,9.6&#xD;&#xA;&#x9;&#x9;c-0.2,0.1-0.3,0.5-0.2,0.7c0.1,0.2,0.4,0.3,0.7,0.2l21.1-12.7l-21,13.2c-0.2,0.1-0.3,0.5-0.2,0.7c0.1,0.2,0.4,0.3,0.7,0.2l21.7-13&#xD;&#xA;&#x9;&#x9;l-22.3,14c-0.2,0.1-0.3,0.5-0.2,0.7c0.1,0.2,0.3,0.2,0.4,0.2c0.1,0,0.2,0,0.3-0.1l62.9-37.8c0.2-0.1,0.3-0.4,0.2-0.7&#xD;&#xA;&#x9;&#x9;c-0.1-0.2-0.4-0.3-0.7-0.2l-23,13.8l22.3-14c0.2-0.1,0.3-0.5,0.2-0.7c-0.1-0.2-0.4-0.3-0.7-0.2l-21,12.6l20.9-13.2&#xD;&#xA;&#x9;&#x9;c0.2-0.1,0.3-0.5,0.2-0.7c-0.1-0.2-0.4-0.3-0.7-0.2l-14.5,8.7l15.3-9.6c0.2-0.1,0.3-0.5,0.2-0.7c-0.1-0.2-0.4-0.3-0.7-0.2&#xD;&#xA;&#x9;&#x9;l-26.1,15.7l26.4-16.7c0.2-0.1,0.3-0.5,0.2-0.7c-0.1-0.2-0.4-0.3-0.7-0.2L342,231.3l17.6-11c0.2-0.1,0.3-0.5,0.2-0.7&#xD;&#xA;&#x9;&#x9;c-0.1-0.2-0.4-0.3-0.7-0.2L332,235.7l26.7-16.8c0.2-0.1,0.3-0.5,0.2-0.7c-0.1-0.2-0.4-0.3-0.7-0.2l-26.1,15.7l25.6-16.1&#xD;&#xA;&#x9;&#x9;c0.2-0.1,0.3-0.5,0.2-0.7c-0.1-0.2-0.4-0.3-0.7-0.2l-26.6,16l26.3-16.5c0.2-0.1,0.3-0.5,0.2-0.7c-0.1-0.2-0.4-0.3-0.7-0.2&#xD;&#xA;&#x9;&#x9;l-17.5,10.5l18.2-11.3c0.2-0.1,0.3-0.5,0.2-0.7c-0.1-0.2-0.5-0.3-0.7-0.2l-15.7,9.4l15.5-9.6c0.2-0.1,0.2-0.3,0.2-0.4&#xD;&#xA;&#x9;&#x9;c0.1,0,0.2,0,0.3-0.1l1-0.6c0,0,0,0,0,0c0.1,0.1,0.2,0.1,0.3,0.1c0.1,0,0.2,0,0.3-0.1l0.9-0.6c0.2-0.1,0.3-0.4,0.2-0.7&#xD;&#xA;&#x9;&#x9;c-0.1-0.2-0.4-0.3-0.7-0.2l-0.9,0.6c0,0,0,0,0,0c-0.2-0.1-0.4-0.1-0.6,0l-1,0.6c-0.2,0.1-0.2,0.3-0.2,0.5c-0.1,0-0.2,0-0.3,0.1&#xD;&#xA;&#x9;&#x9;l-32.3,19.4l34.3-21.5c0.1,0.1,0.2,0.2,0.4,0.2c0.1,0,0.2,0,0.3-0.1l0.8-0.5c0.2-0.1,0.3-0.4,0.2-0.7c0,0,0,0,0,0&#xD;&#xA;&#x9;&#x9;c0.1-0.2,0.1-0.4,0-0.6c-0.1-0.2-0.3-0.3-0.5-0.2l0.7-0.4c0.1,0.1,0.2,0.2,0.4,0.2c0.1,0,0.2,0,0.3-0.1l0.4-0.2&#xD;&#xA;&#x9;&#x9;c0.2,0.2,0.4,0.3,0.7,0.1l0.9-0.5l-0.1,1.1c0,0.2,0,0.3,0.1,0.4l-0.4,1.3c-0.1,0.2,0,0.4,0.2,0.6c0.1,0.1,0.2,0.1,0.3,0.1&#xD;&#xA;&#x9;&#x9;c0.1,0,0.2,0,0.3-0.1l0.7-0.4c0.2-0.1,0.3-0.4,0.2-0.7c-0.1-0.1-0.2-0.2-0.3-0.2l0.3-1c0.1-0.2,0-0.4-0.2-0.6c0,0-0.1-0.1-0.1-0.1&#xD;&#xA;&#x9;&#x9;l0.2-1.4c0-0.2-0.1-0.4-0.2-0.5c0-0.1,0-0.2-0.1-0.2c0,0-0.1-0.1-0.1-0.1c0-0.1,0-0.3-0.1-0.4c-0.1-0.2-0.4-0.3-0.7-0.2l-43.4,26.1&#xD;&#xA;&#x9;&#x9;l43.2-27.1c0.2-0.1,0.3-0.5,0.2-0.7c-0.1-0.2-0.4-0.3-0.7-0.2L321.2,228l41.4-25.8c0.2-0.1,0.3-0.5,0.2-0.7&#xD;&#xA;&#x9;&#x9;c-0.1-0.2-0.4-0.3-0.7-0.2l-11.6,7l12.1-7.4c0.2-0.1,0.3-0.5,0.2-0.7c-0.1-0.2-0.4-0.3-0.7-0.2l-21.9,13.2l22.4-13.9&#xD;&#xA;&#x9;&#x9;c0.2-0.1,0.3-0.5,0.2-0.7c-0.1-0.2-0.4-0.3-0.7-0.2l-6.5,3.9l6.2-3.8c0.2-0.1,0.3-0.5,0.2-0.7c-0.1-0.2-0.4-0.3-0.7-0.2L324.1,220&#xD;&#xA;&#x9;&#x9;l37.2-23.2c0.2-0.1,0.3-0.5,0.2-0.7c-0.1-0.2-0.4-0.3-0.7-0.2l-39.5,23.7l39.9-24.9c0.1,0,0.1-0.1,0.2-0.2c0,0,0,0,0.1,0&#xD;&#xA;&#x9;&#x9;c0.1,0,0.2,0,0.3-0.1l0.3-0.2c0.2-0.1,0.3-0.4,0.2-0.7c-0.1-0.2-0.5-0.3-0.7-0.2l-0.3,0.2c-0.1,0-0.1,0.1-0.2,0.2&#xD;&#xA;&#x9;&#x9;c-0.1,0-0.2,0-0.3,0.1l-24.9,15l25.3-15.7c0.2-0.1,0.3-0.5,0.2-0.7c-0.1-0.2-0.5-0.3-0.7-0.2L332,209.6l28.3-17.6&#xD;&#xA;&#x9;&#x9;c0.2-0.1,0.3-0.5,0.2-0.7c-0.1-0.2-0.5-0.3-0.7-0.2l-30.6,18.4l30.9-19.2c0.2-0.1,0.3-0.5,0.2-0.7c-0.1-0.2-0.4-0.3-0.7-0.2&#xD;&#xA;&#x9;&#x9;l-22.8,13.7l22.4-13.9c0.2-0.1,0.3-0.5,0.2-0.7c-0.1-0.2-0.5-0.3-0.7-0.2l-45.3,27.2l43.9-27.6c0.2-0.1,0.3-0.5,0.2-0.7&#xD;&#xA;&#x9;&#x9;c-0.1-0.2-0.4-0.3-0.7-0.2l-33.2,20l33.1-20.5c0.1,0,0.2,0.1,0.2,0.1c0.1,0,0.2,0,0.3-0.1l2-1.2c0.2-0.1,0.3-0.4,0.2-0.7&#xD;&#xA;&#x9;&#x9;c-0.1-0.1-0.1-0.2-0.2-0.2c0,0,0,0,0,0c-0.1-0.2-0.4-0.3-0.7-0.2l-41.9,25.2l42.4-26.4c0.2-0.1,0.3-0.5,0.2-0.7&#xD;&#xA;&#x9;&#x9;c-0.1-0.2-0.4-0.3-0.7-0.2l-5,3l5.1-3.1c0.2-0.1,0.3-0.5,0.2-0.7c-0.1-0.2-0.4-0.3-0.7-0.2L307.1,212l48-29.9c0,0,0.1-0.1,0.1-0.1&#xD;&#xA;&#x9;&#x9;l0,0c-0.1,0.2,0,0.4,0.2,0.5c0.1,0.1,0.2,0.1,0.3,0.1c0.1,0,0.2,0,0.3-0.1l2.5-1.5c0.2-0.1,0.3-0.4,0.2-0.7&#xD;&#xA;&#x9;&#x9;c-0.1-0.2-0.4-0.3-0.7-0.2l-1.4,0.8l0.1-0.3c0.1-0.2,0-0.4-0.2-0.5c-0.2-0.1-0.4-0.1-0.6,0l-0.5,0.3c-0.2,0.1-0.3,0.4-0.2,0.7&#xD;&#xA;&#x9;&#x9;c0.1,0.1,0.1,0.1,0.2,0.2l0,0.1c0-0.1,0-0.1-0.1-0.2c-0.1-0.2-0.4-0.3-0.7-0.2l-35.9,21.6l35.1-21.7c0.2-0.1,0.3-0.5,0.2-0.7&#xD;&#xA;&#x9;&#x9;c-0.1-0.2-0.4-0.3-0.7-0.2l-30.4,18.3L351,181c0.2-0.1,0.3-0.5,0.2-0.7c-0.1-0.2-0.4-0.3-0.7-0.2l-12.8,7.7l11.1-6.8&#xD;&#xA;&#x9;&#x9;c0.2-0.1,0.3-0.5,0.2-0.7c-0.1-0.2-0.4-0.3-0.7-0.2l-37,22.3l34.5-21.4c0.2-0.1,0.3-0.5,0.2-0.7c-0.1-0.2-0.4-0.3-0.7-0.2&#xD;&#xA;&#x9;&#x9;l-46.7,28.1L342,181c0.2-0.1,0.3-0.5,0.2-0.7c-0.1-0.2-0.4-0.3-0.7-0.2l-40.8,24.5l37.8-23.6c0.2-0.1,0.3-0.5,0.2-0.7&#xD;&#xA;&#x9;&#x9;c-0.1-0.2-0.4-0.3-0.7-0.2l-21.5,12.9L336,181c0.2-0.1,0.3-0.5,0.2-0.7c-0.1-0.2-0.4-0.3-0.7-0.2l-10.5,6.3l8.9-5.5&#xD;&#xA;&#x9;&#x9;c0.2-0.1,0.3-0.5,0.2-0.7c-0.1-0.2-0.4-0.3-0.7-0.2l-37.6,22.6l34.7-21.8c0.2-0.1,0.3-0.5,0.2-0.7c-0.1-0.2-0.4-0.3-0.7-0.2&#xD;&#xA;&#x9;&#x9;L294,201.7l32.8-20.6c0.2-0.1,0.3-0.5,0.2-0.7c-0.1-0.2-0.4-0.3-0.7-0.2l-27.8,16.7l25.3-15.8c0.2-0.1,0.3-0.5,0.2-0.7&#xD;&#xA;&#x9;&#x9;c-0.1-0.2-0.4-0.3-0.7-0.2l-8.7,5.2l7.1-4.4c0.2-0.1,0.3-0.5,0.2-0.7c-0.1-0.2-0.4-0.3-0.7-0.2l-8.4,5l6.7-4.2&#xD;&#xA;&#x9;&#x9;c0.2-0.1,0.3-0.5,0.2-0.7c-0.1-0.2-0.4-0.3-0.7-0.2l-22.8,13.7l20.5-12.9c0.2-0.1,0.3-0.5,0.2-0.7c-0.1-0.2-0.4-0.3-0.7-0.2&#xD;&#xA;&#x9;&#x9;l-12.3,7.4l10.5-6.5c0.2-0.1,0.3-0.5,0.2-0.7c-0.1-0.2-0.4-0.3-0.7-0.2l-9.3,5.6l7.6-4.7c0.2-0.1,0.3-0.5,0.2-0.7&#xD;&#xA;&#x9;&#x9;c-0.1-0.2-0.5-0.3-0.7-0.2l-28.6,17.2l25.7-16.4c0.2-0.1,0.3-0.5,0.2-0.7c-0.1-0.2-0.4-0.3-0.7-0.2l-24.8,14.9l22.1-14&#xD;&#xA;&#x9;&#x9;c0.2-0.1,0.3-0.5,0.2-0.7c-0.1-0.2-0.4-0.3-0.7-0.2l-17.3,10.4l15.1-9.5c0.2-0.1,0.3-0.5,0.2-0.7c-0.1-0.2-0.4-0.3-0.7-0.2&#xD;&#xA;&#x9;&#x9;l-28.3,17l25.1-16.1c0.2-0.1,0.3-0.5,0.2-0.7c-0.1-0.2-0.4-0.3-0.7-0.2l-10.7,6.4l8.9-5.6c0.2-0.1,0.3-0.5,0.2-0.7&#xD;&#xA;&#x9;&#x9;c-0.1-0.2-0.4-0.3-0.7-0.2l-13,7.8l11-7c0.2-0.1,0.3-0.5,0.2-0.7c-0.1-0.2-0.4-0.3-0.7-0.2l-4.6,2.8l3-1.9c0.2-0.1,0.3-0.5,0.2-0.7&#xD;&#xA;&#x9;&#x9;c-0.1-0.2-0.4-0.3-0.7-0.2l-11.7,7l9.8-6.2c0.2-0.1,0.3-0.5,0.2-0.7c-0.1-0.2-0.4-0.3-0.7-0.2l-2.3,1.4l0.9-0.5&#xD;&#xA;&#x9;&#x9;c0.2-0.1,0.3-0.5,0.2-0.7c-0.1-0.2-0.4-0.3-0.7-0.2l-20,12l17.2-11.1c0.2-0.1,0.3-0.5,0.2-0.7c-0.1-0.2-0.4-0.3-0.7-0.2l-18.5,11.1&#xD;&#xA;&#x9;&#x9;l15.9-10.2c0.2-0.1,0.3-0.5,0.2-0.7c-0.1-0.2-0.4-0.3-0.7-0.2l-21,12.6l18.1-11.8c0.2-0.1,0.3-0.5,0.2-0.7&#xD;&#xA;&#x9;&#x9;c-0.1-0.2-0.4-0.3-0.7-0.2l-21.6,13l18.5-12.1c0.2-0.1,0.3-0.5,0.2-0.7c-0.1-0.2-0.4-0.3-0.7-0.2l-9.2,5.5l7.4-4.7&#xD;&#xA;&#x9;&#x9;c0.2-0.1,0.3-0.5,0.2-0.7c-0.1-0.2-0.4-0.3-0.7-0.2l-5.8,3.5l3.7-2.3c0.2-0.1,0.3-0.5,0.2-0.7c-0.1-0.2-0.4-0.3-0.7-0.2l-21.5,12.9&#xD;&#xA;&#x9;&#x9;l18.5-12.1c0.2-0.1,0.3-0.5,0.2-0.7c-0.1-0.2-0.4-0.3-0.7-0.2l-1.1,0.6c0.1-0.1,0.1-0.3,0-0.5c-0.1-0.2-0.4-0.3-0.7-0.2l-10.1,6.1&#xD;&#xA;&#x9;&#x9;l8.2-5.2c0.2-0.1,0.3-0.5,0.2-0.7c-0.1-0.2-0.4-0.3-0.7-0.2l-21.2,12.7l18.2-11.9c0.2-0.1,0.3-0.5,0.2-0.7&#xD;&#xA;&#x9;&#x9;c-0.1-0.2-0.4-0.3-0.7-0.2l-11.8,7.1l9.7-6.2c0.2-0.1,0.3-0.5,0.2-0.7c-0.1-0.2-0.4-0.3-0.7-0.2l-5.4,3.3l3.8-2.4&#xD;&#xA;&#x9;&#x9;c0.2-0.1,0.3-0.5,0.2-0.7c-0.1-0.2-0.4-0.3-0.7-0.2L235.2,191l14.5-9.7c0.2-0.2,0.3-0.5,0.1-0.7c-0.1-0.2-0.4-0.3-0.7-0.2&#xD;&#xA;&#x9;&#x9;l-16.1,9.7l13.1-8.8c0.2-0.2,0.3-0.5,0.1-0.7c-0.1-0.2-0.4-0.3-0.7-0.2l-10.9,6.6l8.6-5.7c0.2-0.2,0.3-0.5,0.1-0.7&#xD;&#xA;&#x9;&#x9;c-0.1-0.2-0.4-0.3-0.7-0.2l-9.8,5.9l7.5-5c0.2-0.2,0.3-0.5,0.1-0.7c-0.1-0.2-0.4-0.3-0.7-0.2l-6.5,3.9l4.6-3.1&#xD;&#xA;&#x9;&#x9;c0.2-0.2,0.3-0.5,0.1-0.7c-0.1-0.2-0.4-0.3-0.7-0.2l-3.9,2.3l2.2-1.5c0.2-0.2,0.3-0.5,0.1-0.7c-0.1-0.2-0.4-0.3-0.7-0.2l-1.7,1&#xD;&#xA;&#x9;&#x9;l0.2-0.2c0.2-0.2,0.3-0.5,0.1-0.7c-0.1-0.2-0.4-0.3-0.7-0.2l-1.9,1.1l0.4-0.3c0.2-0.2,0.3-0.5,0.1-0.7c-0.1-0.2-0.4-0.3-0.7-0.2&#xD;&#xA;&#x9;&#x9;l-14.1,8.5l0.2-1c0-0.2-0.1-0.4-0.2-0.5c0,0,0,0-0.1,0c0.1,0,0.1,0,0.1,0l10-6c0.2-0.1,0.3-0.4,0.2-0.7c-0.1-0.2-0.4-0.3-0.7-0.2&#xD;&#xA;&#x9;&#x9;l-5.9,3.5l2.9-2.7c0.2-0.2,0.2-0.5,0.1-0.7c-0.2-0.2-0.4-0.3-0.7-0.1l-4.6,2.7l1.4-2c0.1-0.2,0.1-0.5,0-0.6&#xD;&#xA;&#x9;&#x9;c-0.2-0.2-0.4-0.2-0.6-0.1l-2.1,1.3l0.1-0.8c0-0.2-0.1-0.4-0.2-0.5c-0.2-0.1-0.4-0.1-0.5,0l-0.5,0.3c-0.2,0.1-0.3,0.4-0.2,0.7&#xD;&#xA;&#x9;&#x9;c0.1,0.1,0.2,0.2,0.3,0.2l-0.1,1c0,0.2,0.1,0.4,0.2,0.5c0.2,0.1,0.4,0.1,0.5,0l1-0.6l-1.4,2c-0.1,0.2-0.1,0.5,0,0.6&#xD;&#xA;&#x9;&#x9;c0.2,0.2,0.4,0.2,0.6,0.1l2.5-1.5l-2.9,2.7c-0.2,0.2-0.2,0.5-0.1,0.7c0,0.1,0.1,0.1,0.2,0.1c0,0-0.1,0-0.1,0l-0.4,0.2&#xD;&#xA;&#x9;&#x9;c-0.2,0.1-0.3,0.4-0.2,0.7c0,0.1,0.1,0.1,0.2,0.2l-0.2,1.4c0,0.2,0.1,0.4,0.2,0.5c0.1,0.1,0.3,0.1,0.5,0.1l-0.5,0.3&#xD;&#xA;&#x9;&#x9;c-0.2,0.2-0.3,0.5-0.1,0.7c0.1,0.2,0.4,0.3,0.6,0.2l-0.5,0.3c-0.2,0.2-0.3,0.5-0.1,0.7c0.1,0.2,0.4,0.3,0.7,0.2l1.6-1l-2.2,1.5&#xD;&#xA;&#x9;&#x9;c-0.2,0.2-0.3,0.5-0.1,0.7c0.1,0.2,0.4,0.3,0.7,0.2l4-2.4l-4.6,3.1c-0.2,0.2-0.3,0.5-0.1,0.7c0.1,0.2,0.4,0.3,0.7,0.2l6.9-4.2&#xD;&#xA;&#x9;&#x9;l-7.5,5c-0.2,0.2-0.3,0.5-0.1,0.7c0.1,0.2,0.4,0.3,0.7,0.2l8.1-4.8l-8.6,5.7c-0.2,0.2-0.3,0.5-0.1,0.7c0.1,0.2,0.4,0.3,0.7,0.2&#xD;&#xA;&#x9;&#x9;l12.6-7.6l-13.1,8.8c-0.2,0.2-0.3,0.5-0.1,0.7c0.1,0.2,0.4,0.3,0.7,0.2l14-8.4l-14.5,9.7c-0.2,0.2-0.3,0.5-0.1,0.7&#xD;&#xA;&#x9;&#x9;c0.1,0.2,0.4,0.3,0.7,0.2l3.3-2l-3.8,2.4c-0.2,0.1-0.3,0.5-0.2,0.7c0.1,0.2,0.4,0.3,0.7,0.2l9.2-5.5l-9.7,6.2&#xD;&#xA;&#x9;&#x9;c-0.2,0.1-0.3,0.5-0.2,0.7c0.1,0.2,0.4,0.3,0.7,0.2l18.3-11L216.9,207c-0.2,0.1-0.3,0.5-0.2,0.7c0.1,0.2,0.4,0.3,0.7,0.2l10.1-6.1&#xD;&#xA;&#x9;&#x9;l-8.2,5.2c-0.2,0.1-0.3,0.5-0.2,0.7c0.1,0.2,0.3,0.2,0.4,0.2c0.1,0,0.2,0,0.3-0.1l2-1.2c-0.1,0.1-0.1,0.3,0,0.5&#xD;&#xA;&#x9;&#x9;c0.1,0.2,0.4,0.3,0.7,0.2L243,195l-18.5,12.1c-0.2,0.1-0.3,0.5-0.2,0.7c0.1,0.2,0.4,0.3,0.7,0.2l5.3-3.2l-3.7,2.3&#xD;&#xA;&#x9;&#x9;c-0.2,0.1-0.3,0.5-0.2,0.7c0.1,0.2,0.4,0.3,0.7,0.2l9.2-5.5l-7.4,4.7c-0.2,0.1-0.3,0.5-0.2,0.7c0.1,0.2,0.4,0.3,0.7,0.2l21.6-12.9&#xD;&#xA;&#x9;&#x9;l-18.5,12.1c-0.2,0.1-0.3,0.5-0.2,0.7c0.1,0.2,0.4,0.3,0.7,0.2l21-12.6L236,207.1c-0.2,0.1-0.3,0.5-0.2,0.7&#xD;&#xA;&#x9;&#x9;c0.1,0.2,0.4,0.3,0.7,0.2l18.5-11.1l-15.9,10.2c-0.2,0.1-0.3,0.5-0.2,0.7c0.1,0.2,0.4,0.3,0.7,0.2l20-12l-17.2,11.1&#xD;&#xA;&#x9;&#x9;c-0.2,0.1-0.3,0.5-0.2,0.7c0.1,0.2,0.4,0.3,0.7,0.2l1.3-0.8l-0.8,0.5c-0.2,0.1-0.3,0.5-0.2,0.7c0.1,0.2,0.4,0.3,0.7,0.2l9.8-5.9&#xD;&#xA;&#x9;&#x9;l-9.8,6.2c-0.2,0.1-0.3,0.5-0.2,0.7c0.1,0.2,0.4,0.3,0.7,0.2l3-1.8l-3,1.9c-0.2,0.1-0.3,0.5-0.2,0.7c0.1,0.2,0.4,0.3,0.7,0.2&#xD;&#xA;&#x9;&#x9;l11.1-6.6l-11,7c-0.2,0.1-0.3,0.5-0.2,0.7c0.1,0.2,0.4,0.3,0.7,0.2l8.9-5.3l-8.8,5.6c-0.2,0.1-0.3,0.5-0.2,0.7&#xD;&#xA;&#x9;&#x9;c0.1,0.2,0.4,0.3,0.7,0.2l25.4-15.2l-25.1,16.1c-0.2,0.1-0.3,0.5-0.2,0.7c0.1,0.2,0.4,0.3,0.7,0.2l15.2-9.1l-15.1,9.5&#xD;&#xA;&#x9;&#x9;c-0.2,0.1-0.3,0.5-0.2,0.7c0.1,0.2,0.4,0.3,0.7,0.2l22.3-13.4l-22.1,14c-0.2,0.1-0.3,0.5-0.2,0.7c0.1,0.2,0.4,0.3,0.7,0.2l26-15.6&#xD;&#xA;&#x9;&#x9;l-25.7,16.4c-0.2,0.1-0.3,0.5-0.2,0.7c0.1,0.2,0.4,0.3,0.7,0.2l7.6-4.6l-7.6,4.7c-0.2,0.1-0.3,0.5-0.2,0.7c0.1,0.2,0.4,0.3,0.7,0.2&#xD;&#xA;&#x9;&#x9;l10.5-6.3l-10.5,6.5c-0.2,0.1-0.3,0.5-0.2,0.7c0.1,0.2,0.4,0.3,0.7,0.2l20.7-12.4l-20.5,12.9c-0.2,0.1-0.3,0.5-0.2,0.7&#xD;&#xA;&#x9;&#x9;c0.1,0.2,0.4,0.3,0.7,0.2l6.7-4l-6.7,4.2c-0.2,0.1-0.3,0.5-0.2,0.7c0.1,0.2,0.4,0.3,0.7,0.2l7-4.2l-7.1,4.4&#xD;&#xA;&#x9;&#x9;c-0.2,0.1-0.3,0.5-0.2,0.7c0.1,0.2,0.4,0.3,0.7,0.2l25.4-15.2l-25.3,15.8c-0.2,0.1-0.3,0.5-0.2,0.7c0.1,0.2,0.4,0.3,0.7,0.2&#xD;&#xA;&#x9;&#x9;l32.3-19.4L251.8,227c-0.2,0.1-0.3,0.5-0.2,0.7c0.1,0.2,0.4,0.3,0.7,0.2l34.1-20.5l-34.6,21.8c-0.2,0.1-0.3,0.5-0.2,0.7&#xD;&#xA;&#x9;&#x9;c0.1,0.2,0.4,0.3,0.7,0.2l8.4-5l-8.9,5.5c-0.2,0.1-0.3,0.5-0.2,0.7c0.1,0.2,0.4,0.3,0.7,0.2l19-11.4L251.8,232&#xD;&#xA;&#x9;&#x9;c-0.2,0.1-0.3,0.5-0.2,0.7c0.1,0.2,0.4,0.3,0.7,0.2l37.3-22.4L251.8,234c-0.2,0.1-0.3,0.5-0.2,0.7c0.1,0.2,0.4,0.3,0.7,0.2&#xD;&#xA;&#x9;&#x9;l42.9-25.8l-43.4,27.2c-0.2,0.1-0.3,0.5-0.2,0.7c0.1,0.2,0.4,0.3,0.7,0.2l34-20.4l-34.5,21.4c-0.2,0.1-0.3,0.5-0.2,0.7&#xD;&#xA;&#x9;&#x9;c0.1,0.2,0.4,0.3,0.7,0.2l10.6-6.4l-11.1,6.8c-0.2,0.1-0.3,0.5-0.2,0.7c0.1,0.2,0.4,0.3,0.7,0.2l27.8-16.7l-28.3,17.5&#xD;&#xA;&#x9;&#x9;c-0.2,0.1-0.3,0.5-0.2,0.7c0.1,0.2,0.5,0.3,0.7,0.2l35.5-21.3l-35.1,21.7c-0.2,0.1-0.3,0.5-0.2,0.7c0.1,0.2,0.4,0.3,0.7,0.2&#xD;&#xA;&#x9;&#x9;l51.2-30.8l-48,29.9c-0.2,0.1-0.3,0.5-0.2,0.7c0.1,0.2,0.4,0.3,0.7,0.2l6.6-4l-5.1,3.1c-0.2,0.1-0.3,0.5-0.2,0.7&#xD;&#xA;&#x9;&#x9;c0.1,0.2,0.4,0.3,0.7,0.2l45.3-27.2L262,242.4c-0.2,0.1-0.3,0.5-0.2,0.7c0.1,0.2,0.4,0.3,0.7,0.2l37.8-22.7l-35.3,21.9&#xD;&#xA;&#x9;&#x9;c-0.2,0.1-0.3,0.5-0.2,0.7c0.1,0.2,0.4,0.3,0.7,0.2l47.2-28.4l-43.9,27.6c-0.2,0.1-0.3,0.5-0.2,0.7&#xD;&#xA;&#x9;&#x9;C268.9,243.4,269.2,243.4,269.4,243.3z"/>
    <path fill="#662D91" d="M361,185.5c0.1,0,0.2,0,0.3-0.1l0.5-0.3c0.2-0.1,0.3-0.4,0.2-0.6c0.1,0,0.1,0,0.2-0.1l1.4-0.8l-1.5,2.1&#xD;&#xA;&#x9;&#x9;c-0.1,0.2-0.1,0.5,0,0.6c0.2,0.2,0.4,0.2,0.6,0.1l2.2-1.3l-1.9,1.7c-0.2,0.2-0.2,0.5-0.1,0.7c0.2,0.2,0.4,0.3,0.7,0.1l4.5-2.7&#xD;&#xA;&#x9;&#x9;l-3,2.4l-1.2,0.7c-0.2,0.1-0.2,0.3-0.2,0.4l-1.1,0.9c-0.2,0.2-0.2,0.5-0.1,0.7c0.1,0.1,0.3,0.2,0.4,0.2c0.1,0,0.2,0,0.3-0.1&#xD;&#xA;&#x9;&#x9;l0.8-0.5c0.1-0.1,0.2-0.2,0.2-0.4l1.5-1.2l2.8-1.7l-3.2,2.6c-0.2,0.2-0.2,0.5-0.1,0.7c0.1,0.2,0.4,0.3,0.6,0.2l-0.3,0.2&#xD;&#xA;&#x9;&#x9;c-0.2,0.2-0.3,0.5-0.1,0.7c0.1,0.2,0.4,0.3,0.7,0.2l3.9-2.3l-5.2,4c-0.2,0.2-0.3,0.5-0.1,0.7c0.2,0.2,0.4,0.3,0.7,0.1l5.9-3.5&#xD;&#xA;&#x9;&#x9;l-6.7,5c-0.2,0.2-0.3,0.5-0.1,0.7c0.1,0.2,0.4,0.3,0.7,0.1l6.6-4L364,197c-0.2,0.2-0.3,0.5-0.1,0.7c0.1,0.2,0.4,0.3,0.7,0.2&#xD;&#xA;&#x9;&#x9;l10.7-6.4l-11.1,7.5c-0.2,0.2-0.3,0.5-0.1,0.7c0.1,0.2,0.4,0.3,0.7,0.2l12.6-7.6l-12.7,8.4c-0.2,0.2-0.3,0.5-0.1,0.7&#xD;&#xA;&#x9;&#x9;c0.1,0.2,0.4,0.3,0.7,0.2l14.7-8.9l-15,10c-0.2,0.2-0.3,0.5-0.1,0.7c0.1,0.2,0.4,0.3,0.7,0.2l14-8.4l-13.5,8.8&#xD;&#xA;&#x9;&#x9;c-0.2,0.1-0.3,0.5-0.2,0.7c0.1,0.2,0.4,0.3,0.7,0.2l8.2-4.9l-9.4,6.2c-0.2,0.1-0.3,0.5-0.1,0.7c0.1,0.2,0.4,0.3,0.7,0.2l13-7.8&#xD;&#xA;&#x9;&#x9;l-13.1,8.7c-0.2,0.2-0.3,0.5-0.1,0.7c0.1,0.2,0.4,0.3,0.7,0.2l9-5.4l-8.7,5.7c-0.2,0.1-0.3,0.5-0.2,0.7c0.1,0.2,0.4,0.3,0.7,0.2&#xD;&#xA;&#x9;&#x9;l14.1-8.4l-13.6,9.1c-0.2,0.2-0.3,0.5-0.1,0.7c0.1,0.2,0.4,0.3,0.7,0.2l7.3-4.4l-6.4,4.2c-0.2,0.1-0.3,0.3-0.2,0.5&#xD;&#xA;&#x9;&#x9;c-0.2-0.1-0.3-0.1-0.5,0l-0.5,0.3c-0.2,0.1-0.3,0.4-0.2,0.7c0.1,0.1,0.2,0.2,0.3,0.2l-0.1,0.9c0,0.2,0.1,0.4,0.2,0.5&#xD;&#xA;&#x9;&#x9;c0.1,0.1,0.2,0.1,0.3,0.1c0,0,0,0,0,0l-0.5,1.6c-0.1,0.2,0,0.4,0.2,0.5c0.2,0.1,0.4,0.1,0.6,0l10.9-6.5l-10.7,7.1&#xD;&#xA;&#x9;&#x9;c-0.2,0.2-0.3,0.5-0.1,0.7c0.1,0.2,0.4,0.3,0.7,0.2l3.4-2.1l-3.4,2.2c-0.2,0.1-0.3,0.5-0.2,0.7c0.1,0.2,0.4,0.3,0.7,0.2l28.2-17&#xD;&#xA;&#x9;&#x9;l-28.3,18.1c-0.2,0.1-0.3,0.5-0.2,0.7c0.1,0.2,0.4,0.3,0.7,0.2l19.7-11.8l-20,12.6c-0.2,0.1-0.3,0.5-0.2,0.7&#xD;&#xA;&#x9;&#x9;c0.1,0.2,0.4,0.3,0.7,0.2l18.9-11.4l-18.8,11.9c-0.2,0.1-0.3,0.5-0.2,0.7c0.1,0.2,0.4,0.3,0.7,0.2l21.3-12.8L371,224.4&#xD;&#xA;&#x9;&#x9;c-0.1,0.1-0.2,0.2-0.2,0.3c-0.2-0.2-0.4-0.2-0.6-0.1l-0.2,0.1c-0.2,0.1-0.3,0.4-0.2,0.7c0.1,0.1,0.2,0.2,0.3,0.2l-36.5,21.9&#xD;&#xA;&#x9;&#x9;l30.4-19.2c0.2-0.1,0.3-0.5,0.2-0.7c-0.1-0.2-0.4-0.3-0.7-0.2l-66.5,40l1.3-1.6c0.2-0.2,0.2-0.5,0-0.6c-0.2-0.2-0.4-0.2-0.6-0.1&#xD;&#xA;&#x9;&#x9;l-2.2,1.3l0.5-1c0.1-0.2,0.1-0.4-0.1-0.6c-0.2-0.2-0.4-0.2-0.6-0.1l-1.1,0.6c-0.2,0.1-0.3,0.4-0.2,0.7c0.1,0.1,0.2,0.2,0.3,0.2&#xD;&#xA;&#x9;&#x9;l-0.6,1.2c-0.1,0.2-0.1,0.4,0.1,0.6c0.2,0.2,0.4,0.2,0.6,0.1l1.1-0.7l-1.3,1.6c-0.2,0.2-0.2,0.5,0,0.6c0.2,0.2,0.4,0.2,0.6,0.1&#xD;&#xA;&#x9;&#x9;l30.1-18.1l-30.4,19.2c-0.2,0.1-0.3,0.5-0.2,0.7c0.1,0.2,0.4,0.3,0.7,0.2l20-12L295,272.4c-0.2,0.1-0.3,0.5-0.2,0.7&#xD;&#xA;&#x9;&#x9;c0.1,0.2,0.4,0.3,0.7,0.2l60.4-36.3l-64.3,39.7c-0.2,0.1-0.3,0.5-0.2,0.7c0.1,0.2,0.5,0.3,0.7,0.2l63.4-38.1l-64.8,40&#xD;&#xA;&#x9;&#x9;c-0.2,0.1-0.3,0.5-0.2,0.7c0.1,0.2,0.4,0.3,0.7,0.2l49.1-29.5l-49.2,30.2c-0.2,0.1-0.3,0.5-0.2,0.7c0.1,0.2,0.3,0.2,0.4,0.2&#xD;&#xA;&#x9;&#x9;c0.1,0,0.2,0,0.3-0.1l137.4-82.6c0.2-0.1,0.3-0.4,0.2-0.7c-0.1-0.2-0.4-0.3-0.7-0.2l-48.7,29.3l49.2-30.2c0.2-0.1,0.3-0.5,0.2-0.7&#xD;&#xA;&#x9;&#x9;c-0.1-0.2-0.4-0.3-0.7-0.2l-64.3,38.6l64.8-39.9c0.2-0.1,0.3-0.5,0.2-0.7c-0.1-0.2-0.4-0.3-0.7-0.2l-63.9,38.4L429,193&#xD;&#xA;&#x9;&#x9;c0.2-0.1,0.3-0.5,0.2-0.7c-0.1-0.2-0.4-0.3-0.7-0.2l-77.3,46.4l20.3-12.6c0.2-0.1,0.3-0.5,0.2-0.7c0,0,0,0,0,0c0,0,0,0,0,0&#xD;&#xA;&#x9;&#x9;l57.3-34.4c0.2-0.1,0.3-0.4,0.2-0.7c-0.1-0.2-0.4-0.3-0.7-0.2l-20.9,12.5l21.4-13.5c0.2-0.1,0.3-0.5,0.2-0.7&#xD;&#xA;&#x9;&#x9;c-0.1-0.2-0.4-0.3-0.7-0.2l-18.3,11l18.8-11.8c0.2-0.1,0.3-0.5,0.2-0.7c-0.1-0.2-0.4-0.3-0.7-0.2l-19.5,11.7l20-12.6&#xD;&#xA;&#x9;&#x9;c0.2-0.1,0.3-0.5,0.2-0.7c-0.1-0.2-0.4-0.3-0.7-0.2l-27.9,16.7l28.3-18.1c0.2-0.1,0.3-0.5,0.2-0.7c-0.1-0.2-0.4-0.3-0.7-0.2&#xD;&#xA;&#x9;&#x9;l-33.1,19.9l3.4-2.2c0.2-0.1,0.3-0.5,0.2-0.7c-0.1-0.2-0.4-0.3-0.7-0.2l-10.2,6.1l10.7-7.1c-0.1,0.2-0.2,0.4,0,0.6&#xD;&#xA;&#x9;&#x9;c0.1,0.1,0.3,0.2,0.4,0.2c0.1,0,0.2,0,0.3-0.1l28.2-16.9c0.2-0.1,0.3-0.4,0.2-0.7c-0.1-0.2-0.4-0.3-0.7-0.2l-14.3,8.6l12.4-8.5&#xD;&#xA;&#x9;&#x9;c0.2-0.2,0.3-0.5,0.1-0.7c-0.1-0.2-0.4-0.3-0.7-0.2l-21.8,13.1l1.1-1.1c0.2-0.2,0.2-0.5,0-0.7c-0.2-0.2-0.4-0.2-0.7-0.1l-1.4,0.8&#xD;&#xA;&#x9;&#x9;c-0.2,0.1-0.3,0.4-0.2,0.7c0,0,0,0,0,0l-2.4,2.5c-0.2,0.2-0.2,0.5,0,0.7c0.2,0.2,0.4,0.2,0.7,0.1l11.3-6.8l-12.3,8.5&#xD;&#xA;&#x9;&#x9;c0.1-0.2,0.2-0.4,0-0.6c-0.1-0.2-0.4-0.3-0.7-0.2l-28.8,17.3l0.4-1.5c0,0,0.1,0,0.1,0c0.1,0,0.2,0,0.3-0.1l24.8-14.9&#xD;&#xA;&#x9;&#x9;c0.2-0.1,0.3-0.4,0.2-0.7c-0.1-0.2-0.4-0.3-0.7-0.2l-6.8,4.1l10-6.7c0.2-0.2,0.3-0.5,0.1-0.7c-0.1-0.2-0.4-0.3-0.7-0.2l-4.9,3&#xD;&#xA;&#x9;&#x9;l6.4-4.2c0.2-0.1,0.3-0.5,0.2-0.7c-0.1-0.2-0.4-0.3-0.7-0.2l-12.8,7.7l13.6-9.1c0.2-0.2,0.3-0.5,0.1-0.7c-0.1-0.2-0.4-0.3-0.7-0.2&#xD;&#xA;&#x9;&#x9;l-8.5,5.1l8.8-5.7c0.2-0.1,0.3-0.5,0.2-0.7c-0.1-0.2-0.4-0.3-0.7-0.2l-13.8,8.3l13.1-8.7c0.2-0.2,0.3-0.5,0.1-0.7&#xD;&#xA;&#x9;&#x9;c-0.1-0.2-0.4-0.3-0.7-0.2l-10.1,6.1l9.4-6.2c0.2-0.1,0.3-0.5,0.1-0.7c-0.1-0.2-0.4-0.3-0.7-0.2l-6.4,3.9l6.3-4.1c0,0,0.1,0,0.1,0&#xD;&#xA;&#x9;&#x9;l4.6-2.8l-2.5,2.6c-0.2,0.2-0.2,0.5,0,0.7c0.2,0.2,0.4,0.2,0.6,0.1l3.3-2l-2.2,2.3c-0.2,0.2-0.2,0.5,0,0.7c0.1,0.1,0.2,0.2,0.4,0.2&#xD;&#xA;&#x9;&#x9;c0.1,0,0.2,0,0.3-0.1l2.5-1.5c0.2-0.1,0.3-0.4,0.2-0.7c-0.1-0.1-0.2-0.2-0.3-0.2l2.7-2.8c0.2-0.2,0.2-0.5,0-0.7&#xD;&#xA;&#x9;&#x9;c-0.2-0.2-0.4-0.2-0.6-0.1l-3.5,2.1l2.5-2.6c0.2-0.2,0.2-0.5,0-0.7c-0.2-0.2-0.4-0.2-0.6-0.1l-0.1,0.1c-0.2-0.1-0.4-0.2-0.6-0.1&#xD;&#xA;&#x9;&#x9;l-18,10.8l15-9.9c0.2-0.2,0.3-0.5,0.1-0.7c-0.1-0.2-0.4-0.3-0.7-0.2l-15.5,9.3l12.7-8.4c0.2-0.2,0.3-0.5,0.1-0.7&#xD;&#xA;&#x9;&#x9;c-0.1-0.2-0.4-0.3-0.7-0.2l-13.9,8.4l11.1-7.5c0.2-0.2,0.3-0.5,0.1-0.7c-0.1-0.2-0.4-0.3-0.7-0.2l-10,6l7.7-5.1&#xD;&#xA;&#x9;&#x9;c0.2-0.2,0.3-0.5,0.1-0.7c-0.1-0.2-0.4-0.3-0.7-0.2l-15.6,9.4l6.7-5c0.1,0,0.1-0.1,0.1-0.2c0,0,0.1,0,0.1,0c0.1,0,0.2,0,0.3-0.1&#xD;&#xA;&#x9;&#x9;l5.5-3.3c0.2-0.1,0.3-0.4,0.2-0.7c-0.1-0.2-0.4-0.3-0.7-0.2l-3.5,2.1l0.5-0.8c0.1-0.2,0.1-0.5-0.1-0.6c-0.2-0.2-0.4-0.2-0.6-0.1&#xD;&#xA;&#x9;&#x9;l-1.1,0.7l0.2-0.9c0-0.2,0-0.4-0.2-0.5c-0.2-0.1-0.4-0.1-0.5,0l-0.6,0.3c-0.2,0.1-0.3,0.4-0.2,0.7c0.1,0.1,0.2,0.2,0.3,0.2&#xD;&#xA;&#x9;&#x9;l-0.2,1.1c0,0,0,0,0,0.1c0,0,0-0.1,0-0.1c-0.1-0.2-0.4-0.3-0.7-0.2l-1.5,0.9l1.5-1c0.2-0.2,0.3-0.5,0.1-0.7&#xD;&#xA;&#x9;&#x9;c-0.1-0.2-0.4-0.3-0.7-0.2l-1.6,1c0.1-0.2,0.2-0.4,0.1-0.6c-0.1-0.1-0.2-0.2-0.4-0.2l0.1-0.8c0-0.2,0-0.4-0.2-0.5&#xD;&#xA;&#x9;&#x9;c-0.2-0.1-0.4-0.1-0.5,0l-0.7,0.4c-0.2,0.1-0.3,0.4-0.2,0.7c0.1,0.2,0.3,0.3,0.5,0.2l-0.1,0.7c0,0.2,0,0.4,0.2,0.5&#xD;&#xA;&#x9;&#x9;c0.1,0.1,0.2,0.1,0.3,0.1c0.1,0,0.1,0,0.1,0l-4.5,2.7l3.2-2.6c0.2-0.2,0.2-0.5,0.1-0.7c-0.2-0.2-0.4-0.3-0.7-0.1l-2.4,1.4l3-2.4&#xD;&#xA;&#x9;&#x9;c0.2-0.2,0.2-0.5,0.1-0.7c-0.2-0.2-0.4-0.3-0.7-0.1l-0.9,0.5c0-0.1,0-0.3,0-0.4c-0.1-0.2-0.4-0.3-0.7-0.2l-0.3,0.2c0,0,0,0,0,0&#xD;&#xA;&#x9;&#x9;c-0.1-0.1-0.3-0.1-0.5,0l-1,0.6l0.1-0.4c0-0.2-0.1-0.4-0.2-0.5c-0.2-0.1-0.4-0.1-0.5,0l-0.4,0.2c-0.2,0.1-0.3,0.4-0.2,0.7&#xD;&#xA;&#x9;&#x9;c0,0.1,0.1,0.1,0.2,0.2l-0.1,0.7c0,0.2,0.1,0.4,0.2,0.5c0.1,0.1,0.2,0.1,0.3,0.1c0.1,0,0.2,0,0.3-0.1l2-1.2c0,0,0,0,0,0&#xD;&#xA;&#x9;&#x9;c0,0,0.1,0,0.1,0l-4.9,3l1.9-1.7c0.2-0.2,0.2-0.5,0.1-0.7c-0.2-0.2-0.4-0.3-0.7-0.1l-4.1,2.5l1.5-2.1c0.1-0.2,0.1-0.5,0-0.6&#xD;&#xA;&#x9;&#x9;c-0.2-0.2-0.4-0.2-0.6-0.1l0,0l0.3-0.3c0.1-0.1,0.1-0.1,0.1-0.2c0,0,0,0,0,0.1c0.1,0.2,0.3,0.2,0.4,0.2c0.1,0,0.2,0,0.3-0.1&#xD;&#xA;&#x9;&#x9;l0.5-0.3c0.2-0.1,0.3-0.4,0.2-0.7c-0.1-0.2-0.5-0.3-0.7-0.2l-0.5,0.3c-0.1,0.1-0.2,0.2-0.2,0.3c0,0,0-0.1-0.1-0.1&#xD;&#xA;&#x9;&#x9;c-0.2-0.2-0.4-0.3-0.7-0.1l-2.3,1.4l-0.3-1.2c0-0.2-0.1-0.3-0.3-0.4c-0.1-0.1-0.3-0.1-0.5,0l-0.3,0.2c-0.2,0.1-0.3,0.4-0.2,0.7&#xD;&#xA;&#x9;&#x9;c0.1,0.2,0.3,0.2,0.4,0.2l0.3,1.3c0,0.2,0.1,0.3,0.3,0.4c0,0,0.1,0,0.1,0l-0.6,0.6c-0.2,0.2-0.2,0.4-0.1,0.6c-0.1,0-0.1,0-0.2,0.1&#xD;&#xA;&#x9;&#x9;l-0.5,0.3c-0.2,0.1-0.3,0.4-0.2,0.7C360.7,185.4,360.8,185.5,361,185.5z M369.4,212.4c-0.1,0.1-0.1,0.1-0.2,0.2c-0.1,0-0.2,0-0.4,0&#xD;&#xA;&#x9;&#x9;l0.1-0.7c0-0.1,0-0.1,0-0.2c0.1,0.1,0.3,0.1,0.5,0l10-6L369.4,212.4z M377.1,184.4C377.1,184.4,377.1,184.4,377.1,184.4&#xD;&#xA;&#x9;&#x9;c0.1,0,0.2,0,0.3-0.1l1.7-1c0.1-0.1,0.2-0.2,0.2-0.4c0,0.1,0.1,0.2,0.2,0.2c0.2,0.1,0.4,0.1,0.5,0l0.1-0.1l-0.5,0.8c0,0,0,0,0,0.1&#xD;&#xA;&#x9;&#x9;c-0.1,0-0.2,0-0.3,0c0,0,0-0.1,0-0.1c-0.1-0.2-0.4-0.3-0.7-0.2l-1.3,0.8c-0.2,0.1-0.3,0.4-0.2,0.7c0,0,0,0,0.1,0.1l-5.2,3.1&#xD;&#xA;&#x9;&#x9;L377.1,184.4z"/>
    <path fill="#662D91" d="M367.5,217.1c-0.2-0.1-0.4-0.1-0.6,0l-0.7,0.4c-0.2,0.1-0.3,0.4-0.2,0.7c0.1,0.1,0.2,0.2,0.4,0.2l-0.1,0.4&#xD;&#xA;&#x9;&#x9;c0,0.2,0,0.4,0.2,0.5c0.1,0.1,0.2,0.1,0.3,0.1c0.1,0,0.2,0,0.3-0.1l0.4-0.3c0.2-0.1,0.3-0.4,0.2-0.7c0-0.1-0.1-0.1-0.2-0.2l0.1-0.6&#xD;&#xA;&#x9;&#x9;C367.8,217.5,367.7,217.3,367.5,217.1z"/>
  </g>
  <g>
    <path d="M189.5,422.5c-1.8,1.6-3.1,2.6-3.9,3.2c-0.8,0.6-1.7,0.9-2.7,1c-1,0.1-2-0.1-3-0.6c-1-0.5-1.9-1.2-2.8-2.2&#xD;&#xA;&#x9;&#x9;c-0.8-1-1.4-2-1.8-3c-0.4-1-0.4-2.1-0.2-3.1c0.2-1,0.7-1.9,1.3-2.6c0.7-0.7,1.9-1.9,3.7-3.5l3.1-2.7c1.8-1.6,3.1-2.6,3.9-3.2&#xD;&#xA;&#x9;&#x9;c0.8-0.6,1.7-0.9,2.7-1c1-0.1,2,0.1,3,0.6c1,0.5,1.9,1.2,2.8,2.2c0.8,1,1.4,2,1.8,3c0.4,1,0.4,2.1,0.2,3.1c-0.2,1-0.7,1.9-1.3,2.6&#xD;&#xA;&#x9;&#x9;c-0.7,0.7-1.9,1.9-3.8,3.5L189.5,422.5z M191.4,412.8c0.8-0.7,1.3-1.2,1.5-1.5c0.2-0.3,0.1-0.6-0.1-0.9c-0.2-0.2-0.5-0.3-0.8-0.3&#xD;&#xA;&#x9;&#x9;c-0.3,0-0.9,0.5-1.8,1.3l-8.3,7.3c-1,0.9-1.6,1.5-1.8,1.8c-0.2,0.3-0.1,0.6,0.2,0.9c0.3,0.3,0.6,0.4,0.9,0.2&#xD;&#xA;&#x9;&#x9;c0.4-0.2,1.1-0.7,2.1-1.6L191.4,412.8z"/>
    <path d="M202.1,429.8l-3.8-3.6l0.7-0.8c0.6-0.7,1-1.1,1.1-1.3c0.1-0.2,0-0.5-0.3-0.8c-0.2-0.2-0.5-0.3-0.8-0.3&#xD;&#xA;&#x9;&#x9;c-0.3,0-0.6,0.2-0.9,0.5c-0.4,0.4-0.7,0.8-0.8,1c-0.1,0.3-0.2,0.7-0.1,1.2c0.1,0.5,0.4,1.5,0.9,2.8c0.7,1.8,0.9,3.1,0.8,4&#xD;&#xA;&#x9;&#x9;c-0.1,0.9-0.7,1.9-1.6,2.9c-1.1,1.1-2.1,1.9-2.9,2.2c-0.9,0.3-1.8,0.3-2.8-0.1c-1-0.3-2-1-3-1.9c-1.1-1-1.9-2.1-2.3-3.2&#xD;&#xA;&#x9;&#x9;c-0.5-1.1-0.6-2-0.3-2.9c0.3-0.9,0.9-1.9,2.1-3.1l0.6-0.7l3.8,3.6l-0.8,0.9c-0.7,0.8-1.1,1.3-1.3,1.6c-0.1,0.3,0,0.6,0.2,0.9&#xD;&#xA;&#x9;&#x9;c0.3,0.3,0.6,0.4,0.9,0.4c0.3,0,0.6-0.3,1.1-0.8c0.6-0.7,1-1.2,1-1.5c0-0.3-0.4-1.6-1.1-3.9c-0.6-1.9-0.8-3.3-0.5-4.1&#xD;&#xA;&#x9;&#x9;c0.3-0.8,0.8-1.7,1.5-2.5c1.1-1.1,2-1.8,2.8-2.1c0.8-0.3,1.7-0.2,2.7,0.2c1,0.4,2,1,2.9,1.9c0.9,0.9,1.6,1.8,2.1,2.6&#xD;&#xA;&#x9;&#x9;c0.4,0.9,0.6,1.6,0.6,2.4c0,0.7-0.1,1.3-0.4,1.7c-0.2,0.4-0.7,1-1.4,1.7L202.1,429.8z"/>
    <path d="M212.9,439.9l-4.4-3.4l1.4-1.8c0.5-0.6,0.8-1.1,0.8-1.4s0-0.6-0.3-0.8c-0.3-0.2-0.5-0.3-0.8-0.1c-0.2,0.1-0.6,0.5-1.2,1.2&#xD;&#xA;&#x9;&#x9;l-5.7,7.2c-0.4,0.5-0.7,1-0.8,1.4c-0.1,0.4,0,0.7,0.3,0.9c0.3,0.2,0.6,0.3,1,0.1c0.3-0.2,0.8-0.7,1.4-1.5l1.4-1.8l4.1,3.3&#xD;&#xA;&#x9;&#x9;c-1,1.2-1.7,2.1-2.3,2.6c-0.6,0.5-1.3,1-2.2,1.3c-0.9,0.3-1.9,0.3-2.8,0.1c-1-0.2-1.9-0.7-3-1.5c-1.3-1-2.2-2.1-2.6-3.1&#xD;&#xA;&#x9;&#x9;c-0.4-1.1-0.5-2.1-0.1-3.2c0.3-1.1,1.1-2.3,2.2-3.8l3.4-4.3c1-1.3,1.9-2.2,2.7-2.6c0.8-0.5,1.8-0.6,3.1-0.5&#xD;&#xA;&#x9;&#x9;c1.3,0.2,2.5,0.7,3.7,1.7c1.2,1,2,2,2.5,3.2c0.5,1.2,0.5,2.3,0.2,3.3C214.8,437.2,214,438.4,212.9,439.9z"/>
    <path d="M223.9,450.2l-6.4-4.1l-2.3,3.5c-0.5,0.7-0.7,1.3-0.8,1.5c0,0.3,0.1,0.5,0.4,0.7c0.4,0.2,0.7,0.3,1,0.1&#xD;&#xA;&#x9;&#x9;c0.3-0.2,0.7-0.7,1.2-1.5l1.4-2.2l4.7,3l-0.8,1.2c-0.6,1-1.2,1.7-1.7,2.2c-0.5,0.5-1.1,0.8-2,1.2s-1.8,0.4-2.7,0.2&#xD;&#xA;&#x9;&#x9;c-0.9-0.2-1.9-0.6-3-1.3c-1.1-0.7-1.9-1.4-2.5-2.2c-0.6-0.8-1-1.6-1.1-2.5c-0.1-0.8,0-1.6,0.2-2.3c0.2-0.7,0.7-1.7,1.5-2.9l3.1-4.8&#xD;&#xA;&#x9;&#x9;c0.9-1.4,1.8-2.4,2.8-3c0.9-0.6,2-0.8,3.1-0.7s2.3,0.6,3.5,1.3c1.4,0.9,2.4,1.9,2.9,3c0.6,1.1,0.8,2.2,0.6,3.3&#xD;&#xA;&#x9;&#x9;c-0.2,1.1-0.8,2.5-1.8,4L223.9,450.2z M220.6,444.4l0.8-1.2c0.5-0.8,0.8-1.4,0.9-1.7c0.1-0.3,0-0.5-0.3-0.7&#xD;&#xA;&#x9;&#x9;c-0.3-0.2-0.6-0.3-0.8-0.1c-0.2,0.2-0.6,0.7-1.2,1.6l-0.8,1.2L220.6,444.4z"/>
    <path d="M239,454.4l-2.2,4.2c-0.8,1.6-1.5,2.7-2,3.3c-0.5,0.6-1.2,1.2-2,1.5c-0.8,0.4-1.7,0.5-2.7,0.4s-2-0.4-3-1&#xD;&#xA;&#x9;&#x9;c-1.2-0.6-2.1-1.2-2.8-1.9c-0.7-0.7-1.1-1.4-1.3-2.1c-0.2-0.7-0.2-1.5,0-2.4c0.2-0.8,0.7-2,1.4-3.5l2.3-4.4&#xD;&#xA;&#x9;&#x9;c0.8-1.6,1.6-2.8,2.5-3.5c0.8-0.7,1.8-1.1,3-1.2s2.5,0.2,3.9,1c1.2,0.6,2.1,1.3,2.8,2.1c0.7,0.8,1.1,1.6,1.3,2.4&#xD;&#xA;&#x9;&#x9;c0.2,0.8,0.2,1.5,0,2.2C240,452.2,239.6,453.2,239,454.4z M234.4,450.4c0.5-0.9,0.7-1.5,0.7-1.7c0-0.3-0.1-0.5-0.4-0.7&#xD;&#xA;&#x9;&#x9;c-0.3-0.2-0.6-0.2-0.8,0c-0.2,0.2-0.6,0.7-1,1.6l-4,7.8c-0.4,0.8-0.6,1.4-0.7,1.7c0,0.3,0.1,0.5,0.4,0.7c0.3,0.2,0.6,0.2,0.8,0&#xD;&#xA;&#x9;&#x9;c0.2-0.2,0.5-0.6,0.9-1.4L234.4,450.4z"/>
    <path d="M250.5,447.2l-9.2,21.8l-5.6-2.4l9.2-21.8L250.5,447.2z"/>
    <path d="M252.6,460.5l-5.3-1.8l0.4-1.2c0.5-1.4,1-2.5,1.6-3.1c0.6-0.7,1.5-1.1,2.7-1.4c1.2-0.3,2.6-0.1,4.2,0.4&#xD;&#xA;&#x9;&#x9;c1.9,0.6,3.2,1.5,3.9,2.5c0.7,1,1,2,0.9,3.1c-0.1,1-0.7,3.1-1.8,6.1l-3.1,9.2l-5.5-1.8l0.6-1.6c-0.6,0.5-1.2,0.9-1.8,1&#xD;&#xA;&#x9;&#x9;c-0.7,0.1-1.4,0.1-2.1-0.2c-1-0.3-1.8-0.9-2.4-1.7c-0.6-0.8-0.6-2.2,0-4l0.5-1.5c0.5-1.4,1-2.2,1.6-2.6c0.6-0.4,1.9-0.6,3.8-0.7&#xD;&#xA;&#x9;&#x9;c2.1-0.1,3.2-0.2,3.4-0.5c0.2-0.2,0.5-0.7,0.7-1.5c0.3-1,0.5-1.6,0.4-2s-0.2-0.6-0.6-0.7c-0.4-0.1-0.7-0.1-0.8,0.1&#xD;&#xA;&#x9;&#x9;c-0.2,0.2-0.4,0.8-0.8,1.9L252.6,460.5z M253.6,463.6c-1.1,0.4-1.8,0.7-2.1,1.1c-0.3,0.4-0.6,1-0.9,1.8c-0.3,1-0.5,1.6-0.4,1.9&#xD;&#xA;&#x9;&#x9;s0.2,0.5,0.6,0.7c0.4,0.1,0.6,0.1,0.8-0.1c0.2-0.2,0.4-0.7,0.7-1.7L253.6,463.6z"/>
    <path d="M281.3,466.2l-6.1-1.2l0.8-4c0.2-1.2,0.3-1.9,0.2-2.2c-0.1-0.3-0.3-0.5-0.8-0.6c-0.5-0.1-0.9,0-1.1,0.3&#xD;&#xA;&#x9;&#x9;c-0.2,0.3-0.4,1.1-0.7,2.3l-2.1,10.8c-0.2,1.1-0.3,1.9-0.2,2.3c0.1,0.4,0.3,0.6,0.8,0.7c0.4,0.1,0.8,0,1-0.3&#xD;&#xA;&#x9;&#x9;c0.2-0.3,0.4-1.1,0.7-2.4l0.6-2.9l6.1,1.2l-0.2,0.9c-0.5,2.4-1,4.1-1.5,5c-0.5,0.9-1.5,1.7-2.8,2.2c-1.3,0.5-2.8,0.6-4.5,0.3&#xD;&#xA;&#x9;&#x9;c-1.8-0.3-3.2-1-4.2-1.8c-1-0.9-1.6-1.9-1.8-3.1c-0.2-1.2,0-3,0.4-5.2l1.3-6.8c0.3-1.7,0.6-2.9,0.9-3.7c0.3-0.8,0.8-1.6,1.5-2.2&#xD;&#xA;&#x9;&#x9;c0.7-0.7,1.6-1.1,2.7-1.4c1.1-0.2,2.3-0.2,3.6,0c1.8,0.4,3.2,1,4.2,1.9c1,0.9,1.6,1.9,1.8,3c0.2,1.1,0,2.7-0.4,4.9L281.3,466.2z"/>
    <path d="M296.1,468.4l-0.5,4.7c-0.2,1.7-0.4,3-0.6,3.8c-0.3,0.8-0.7,1.5-1.3,2.2c-0.6,0.7-1.4,1.1-2.4,1.3c-0.9,0.2-2,0.3-3.1,0.2&#xD;&#xA;&#x9;&#x9;c-1.3-0.1-2.4-0.4-3.3-0.7c-0.9-0.4-1.5-0.9-2-1.5c-0.4-0.6-0.7-1.4-0.9-2.2c-0.1-0.8-0.1-2.1,0-3.7l0.5-5c0.2-1.8,0.5-3.2,1-4.2&#xD;&#xA;&#x9;&#x9;c0.5-1,1.3-1.7,2.3-2.2c1.1-0.5,2.4-0.7,4-0.5c1.3,0.1,2.4,0.4,3.3,0.9c0.9,0.5,1.6,1.1,2,1.7s0.7,1.4,0.9,2.1&#xD;&#xA;&#x9;&#x9;C296.3,466,296.3,467.1,296.1,468.4z M290.4,466.4c0.1-1,0.1-1.6,0-1.9c-0.1-0.3-0.3-0.4-0.6-0.5s-0.6,0.1-0.7,0.3&#xD;&#xA;&#x9;&#x9;c-0.1,0.2-0.3,0.9-0.4,1.9l-0.8,8.7c-0.1,0.9-0.1,1.5,0,1.8c0.1,0.3,0.3,0.4,0.6,0.5c0.4,0,0.6-0.1,0.7-0.3&#xD;&#xA;&#x9;&#x9;c0.1-0.2,0.2-0.8,0.3-1.6L290.4,466.4z"/>
    <path d="M311.3,461.7l0,19.4l-6,0l0.1-1.6c-0.4,0.7-0.9,1.1-1.5,1.5c-0.6,0.3-1.3,0.5-2.1,0.5c-0.9,0-1.6-0.2-2.2-0.5&#xD;&#xA;&#x9;&#x9;c-0.6-0.3-1-0.7-1.3-1.2c-0.3-0.5-0.5-1.1-0.5-1.6c-0.1-0.6-0.1-1.7-0.1-3.3l0-13.1l5.9,0l0,13.2c0,1.5,0.1,2.4,0.1,2.7&#xD;&#xA;&#x9;&#x9;c0.1,0.3,0.3,0.4,0.8,0.4c0.4,0,0.7-0.1,0.8-0.4s0.1-1.2,0.1-2.8l0-13.1L311.3,461.7z"/>
    <path d="M318.4,461l0.1,1.8c0.4-0.8,0.8-1.3,1.4-1.8c0.6-0.4,1.3-0.7,2.1-0.7c1-0.1,1.9,0.1,2.5,0.5c0.7,0.4,1.2,1,1.4,1.7&#xD;&#xA;&#x9;&#x9;c0.3,0.7,0.5,1.9,0.6,3.6l1.4,13.6l-5.9,0.6l-1.4-13.4c-0.1-1.3-0.3-2.1-0.4-2.4c-0.1-0.3-0.4-0.4-0.8-0.4c-0.4,0-0.7,0.2-0.7,0.6&#xD;&#xA;&#x9;&#x9;c-0.1,0.3,0,1.2,0.1,2.7l1.3,13.1l-5.9,0.6l-2-19.3L318.4,461z"/>
    <path d="M332.8,456.3l0.5,3l1.6-0.3l0.5,3l-1.6,0.3l1.9,10.2c0.2,1.3,0.4,1.9,0.6,2.1s0.7,0.1,1.7-0.1l0.6,3.1l-2.4,0.4&#xD;&#xA;&#x9;&#x9;c-1.3,0.2-2.3,0.4-2.9,0.3c-0.6,0-1.1-0.2-1.6-0.5c-0.5-0.3-0.9-0.7-1.1-1.2c-0.2-0.5-0.5-1.7-0.8-3.6l-1.8-9.7l-1.3,0.2l-0.5-3&#xD;&#xA;&#x9;&#x9;l1.3-0.2l-0.5-3L332.8,456.3z"/>
    <path d="M347.4,455.4l1.8,14c0.3,2.2,0.5,3.8,0.5,4.6s-0.1,1.6-0.4,2.2s-0.7,1.1-1.4,1.6c-0.7,0.4-1.8,0.8-3.4,1.2l-3.5,0.9l-0.8-3&#xD;&#xA;&#x9;&#x9;c0.9-0.2,1.5-0.4,1.7-0.6c0.2-0.2,0.3-0.4,0.2-0.7c0-0.2-0.3-0.8-0.9-1.9l-7.2-14.9l5.2-1.3l5.1,12.2l-2.3-13L347.4,455.4z"/>
    <path d="M351,449.7l9.8-3.7l1.7,4.4l-4,1.5l1.6,4.2l3.6-1.4l1.6,4.2l-3.6,1.4l3.6,9.3l-5.8,2.2L351,449.7z"/>
    <path d="M366.6,443.2l9.8,21.6l-5.5,2.5l-9.8-21.6L366.6,443.2z"/>
    <path d="M384.6,446.1l2.3,4.2c0.8,1.5,1.4,2.7,1.6,3.5c0.2,0.8,0.3,1.6,0.1,2.5c-0.2,0.9-0.6,1.7-1.2,2.4s-1.5,1.4-2.5,1.9&#xD;&#xA;&#x9;&#x9;c-1.1,0.6-2.2,1-3.1,1.2c-0.9,0.2-1.8,0.1-2.5-0.1c-0.7-0.3-1.4-0.7-2-1.3c-0.6-0.6-1.3-1.7-2.1-3.1L373,453&#xD;&#xA;&#x9;&#x9;c-0.9-1.6-1.4-2.9-1.5-4c-0.1-1.1,0.1-2.1,0.7-3.2c0.6-1,1.6-1.9,3-2.7c1.2-0.6,2.3-1,3.3-1.1s1.9,0,2.7,0.3&#xD;&#xA;&#x9;&#x9;c0.8,0.3,1.4,0.7,1.9,1.2C383.4,444.1,384,444.9,384.6,446.1z M378.7,447.7c-0.5-0.9-0.8-1.4-1-1.6c-0.2-0.2-0.5-0.2-0.8,0&#xD;&#xA;&#x9;&#x9;c-0.3,0.2-0.5,0.4-0.4,0.7s0.3,0.9,0.8,1.7l4.2,7.7c0.4,0.8,0.8,1.3,1,1.5c0.2,0.2,0.5,0.2,0.8,0c0.3-0.2,0.5-0.4,0.4-0.7&#xD;&#xA;&#x9;&#x9;c0-0.3-0.2-0.8-0.6-1.5L378.7,447.7z"/>
    <path d="M387.2,436.2l1.2,2.3c-0.3-2,0.2-3.5,1.5-4.5l3.8,5.7c-0.9,0.6-1.5,1.2-1.8,1.7c-0.3,0.5-0.3,1-0.1,1.5&#xD;&#xA;&#x9;&#x9;c0.2,0.5,0.8,1.5,1.8,3.1l4.2,6.4l-4.9,3.3l-10.7-16.2L387.2,436.2z"/>
    <path d="M392.9,426.8l1.8,2.5l-4.9,3.6l-1.8-2.5L392.9,426.8z M395.4,430.3l11.6,15.6l-4.9,3.6l-11.6-15.6L395.4,430.3z"/>
    <path d="M404,417.5l15.6,17.9l-4.5,3.9l-0.9-1.1c0,0.8-0.2,1.5-0.5,2.2c-0.3,0.6-0.7,1.2-1.2,1.6c-0.7,0.6-1.5,0.9-2.3,1&#xD;&#xA;&#x9;&#x9;s-1.5-0.1-2.1-0.4c-0.6-0.4-1.3-1.1-2.3-2.2l-6-6.9c-1-1.1-1.6-2-1.9-2.6c-0.3-0.6-0.3-1.3-0.1-2.1c0.2-0.8,0.7-1.5,1.4-2.1&#xD;&#xA;&#x9;&#x9;c0.6-0.5,1.1-0.8,1.8-1c0.6-0.2,1.3-0.3,2-0.2l-3.6-4.2L404,417.5z M405.5,428.3c-0.5-0.5-0.8-0.9-1.1-1c-0.3-0.1-0.5,0-0.8,0.2&#xD;&#xA;&#x9;&#x9;c-0.3,0.2-0.4,0.5-0.3,0.7c0.1,0.2,0.3,0.7,0.8,1.2l6.2,7.2c0.5,0.6,0.9,1,1.2,1.1c0.3,0.1,0.5,0.1,0.8-0.2&#xD;&#xA;&#x9;&#x9;c0.3-0.3,0.4-0.5,0.3-0.8c-0.1-0.3-0.5-0.8-1.2-1.7L405.5,428.3z"/>
    <path d="M416.6,421.3l-3.8,4l-0.9-0.9c-1.1-1-1.8-2-2.2-2.8c-0.4-0.8-0.4-1.8-0.1-3c0.3-1.2,1-2.4,2.1-3.6c1.4-1.5,2.7-2.3,3.9-2.6&#xD;&#xA;&#x9;&#x9;s2.3-0.1,3.2,0.5c0.9,0.6,2.5,1.9,4.8,4.2l7.1,6.7l-4,4.2l-1.3-1.2c0.3,0.7,0.3,1.4,0.2,2.1s-0.5,1.3-1,1.8&#xD;&#xA;&#x9;&#x9;c-0.7,0.8-1.6,1.2-2.6,1.5c-1,0.2-2.2-0.3-3.7-1.7l-1.2-1.1c-1.1-1-1.6-1.9-1.7-2.5c-0.1-0.7,0.3-1.9,1-3.7c0.8-1.9,1.1-3,1-3.3&#xD;&#xA;&#x9;&#x9;c-0.1-0.3-0.4-0.7-1-1.3c-0.7-0.7-1.3-1.1-1.6-1.2c-0.3-0.1-0.6,0-0.9,0.2c-0.3,0.3-0.4,0.6-0.2,0.8c0.1,0.2,0.6,0.7,1.4,1.5&#xD;&#xA;&#x9;&#x9;L416.6,421.3z M419.9,421.8c-0.1,1.2-0.1,2,0.1,2.4c0.2,0.4,0.7,1,1.3,1.6c0.7,0.7,1.2,1.1,1.5,1.2s0.6,0,0.9-0.3&#xD;&#xA;&#x9;&#x9;c0.3-0.3,0.3-0.5,0.2-0.8c-0.1-0.2-0.5-0.7-1.2-1.4L419.9,421.8z"/>
  </g>
  <g id="g2965">
    <path id="path3112" fill="#0C2E82" d="M100.6,202.2l-25.7-31.9l6.7-11l40.1,8.3l-6.6,10.7l-5.1-1.4l-6.6,10.7l3.6,3.9L100.6,202.2z&#xD;&#xA;&#x9;&#x9; M88.1,171l9.8,10.5l4.2-6.8L88.1,171z"/>
    <path id="path3114" fill="#0C2E82" d="M123.6,164.9l-28.1-26.4l10.4-11.1l22.2,11.5l-12.9-21.4l10.4-11.1l28.1,26.4L146,141&#xD;&#xA;&#x9;&#x9;l-8.6-8.1l-4.3-4.2l-4.6-5.2l-0.1,0.1l13.3,22l-6,6.4l-22.9-11.8l-0.1,0.1l4.5,3.5l4.6,3.9l9.5,8.9L123.6,164.9L123.6,164.9z"/>
    <path id="path3116" fill="#0C2E82" d="M156.3,130.8l-10.9-39.5l10.5-7.4l33.5,23.6l-10.3,7.2l-4.2-3.3l-10.3,7.2l1.8,5L156.3,130.8&#xD;&#xA;&#x9;&#x9;z M157.2,97.2l4.8,13.5l6.5-4.6C168.5,106.1,157.2,97.2,157.2,97.2z"/>
    <path id="path3118" fill="#0C2E82" d="M169.5,74.8l31.7-15.6l4.5,9.1l-10.2,5L208,98.8l-11.3,5.6l-12.6-25.5l-10.2,5L169.5,74.8z"/>
    <path id="path3120" fill="#0C2E82" d="M222.2,92.4l-11-37l30.1-9l2.6,8.6l-18,5.4l1.6,5.3l15.3-4.5l2.6,8.6L230,74.4l1.7,5.8&#xD;&#xA;&#x9;&#x9;l18.7-5.6l2.6,8.6L222.2,92.4L222.2,92.4z"/>
    <path id="path3122" fill="#0C2E82" d="M253.2,43.9l12.6-1.4l2.5,23c0.4,3.8,1.5,7,6.7,6.4c4.5-0.5,5.5-3.5,5.1-7.7l-2.5-23&#xD;&#xA;&#x9;&#x9;l12.6-1.4l2.4,21.7c1.3,12.3-3.8,18.3-16.5,19.7c-11.9,1.3-19-2.5-20.4-15.7L253.2,43.9z"/>
    <path id="path3124" fill="#0C2E82" d="M313,65.8l-1,13.4l-12.6-1l2.9-38.5l18.2,1.4c12.8,1,16.8,4.8,16.2,12.2&#xD;&#xA;&#x9;&#x9;c-0.3,4.4-2.6,8-7.2,8.9c3.9,1.8,6.3,2.9,5.7,10.7c-0.4,5-0.7,6.7,0.8,6.8L336,81l-12.8-1c-0.3-0.9-0.4-3.4-0.1-6.8&#xD;&#xA;&#x9;&#x9;c0.4-5-0.4-6.7-6.2-7.2L313,65.8L313,65.8z M313.7,57.3l5,0.4c3.9,0.3,6.1-0.5,6.3-3.2c0.2-2.7-1.8-4.2-4.8-4.4l-5.9-0.4&#xD;&#xA;&#x9;&#x9;L313.7,57.3z"/>
    <path id="path3126" fill="#0C2E82" d="M372.4,76.8l-4.4,12.7L356,85.3l12.7-36.4l17.2,6c12.1,4.2,15,8.9,12.5,16&#xD;&#xA;&#x9;&#x9;c-1.5,4.2-4.6,7.1-9.2,6.8c3.4,2.8,5.4,4.5,2.8,11.8c-1.7,4.8-2.4,6.3-1,6.8l-0.4,1.1l-12.1-4.2c0-0.9,0.5-3.4,1.6-6.6&#xD;&#xA;&#x9;&#x9;c1.7-4.8,1.4-6.6-4.2-8.5L372.4,76.8L372.4,76.8z M375.1,68.8l4.7,1.6c3.7,1.3,6,1.1,6.9-1.5c0.9-2.6-0.7-4.5-3.5-5.5l-5.6-1.9&#xD;&#xA;&#x9;&#x9;L375.1,68.8z"/>
    <path id="path3128" fill="#0C2E82" d="M391.3,97.6l31-26.7l11.2,6.3l-7,40.4l-11-6.2l1.2-5.2l-10.9-6.2l-3.8,3.7&#xD;&#xA;&#x9;&#x9;C402,103.7,391.3,97.6,391.3,97.6z M422.1,84l-10.2,10.1l6.9,3.9L422.1,84z"/>
    <path id="path3130" fill="#0C2E82" d="M428.3,119.1L453,89.5l13,10.9c9.5,8,11.8,17.4,3.6,27.1c-9.3,11.1-19.1,10.2-28.6,2.3&#xD;&#xA;&#x9;&#x9;L428.3,119.1z M443.8,120.3l2.1,1.7c4.5,3.8,9,3.5,13.7-2.1c5.1-6.2,4.5-9.5-0.7-13.8l-1.9-1.5&#xD;&#xA;&#x9;&#x9;C456.9,104.5,443.8,120.3,443.8,120.3z"/>
    <path id="path3132" fill="#0C2E82" d="M458.7,146l28.4-26.1l8.5,9.3l-28.4,26.1L458.7,146L458.7,146z"/>
    <path id="path3134" fill="#0C2E82" d="M510,180.9c-10.8,7.4-21.9,4.3-28.4-5.1c-6.8-10-5.2-20.9,5.6-28.3c10-6.8,21.1-4.5,27.9,5.4&#xD;&#xA;&#x9;&#x9;C522.9,164.2,518.4,175.1,510,180.9z M494.3,157.9c-4.1,2.8-8.3,7.5-4.9,12.5c3.1,4.5,8.2,3.6,13.4,0c4.3-3,7.7-7.9,4.4-12.4&#xD;&#xA;&#x9;&#x9;C504.1,153.3,498.3,155.2,494.3,157.9L494.3,157.9z"/>
    <path id="path3142" fill="#0C2E82" d="M42.6,338.8l37.7-7.9l6.5,30.8l-8.8,1.8l-3.9-18.4l-5.4,1.1l3.3,15.6l-8.8,1.9L60,348.1&#xD;&#xA;&#x9;&#x9;l-5.9,1.2l4,19.1l-8.8,1.8L42.6,338.8L42.6,338.8z"/>
    <path id="path3144" fill="#0C2E82" d="M52,380.7l35.5-15l5.9,14.1l-19.5,15.6l24.8-3.1l5.9,14.1l-35.5,15l-4.4-10.5l10.9-4.6&#xD;&#xA;&#x9;&#x9;l5.6-2.2l6.7-2.1l0-0.1l-25.5,3.1l-3.4-8.1l20.1-16.1l0-0.1l-5,2.7l-5.4,2.6l-12,5.1L52,380.7L52,380.7z"/>
    <path id="path3146" fill="#0C2E82" d="M75.5,431.9l32.1-21.4l17.5,26.1l-7.5,5L107.1,426l-4.6,3.1l8.8,13.2l-7.5,5L95,434l-5,3.4&#xD;&#xA;&#x9;&#x9;l10.9,16.3l-7.5,5L75.5,431.9z"/>
    <path id="path3148" fill="#0C2E82" d="M117.9,466.2l-9.8,9.2l-8.7-9.2l28-26.5L140,453c8.8,9.3,9.2,14.8,3.8,20&#xD;&#xA;&#x9;&#x9;c-3.2,3.1-7.3,4.2-11.3,1.8c1.7,4,2.7,6.4-2.9,11.8c-3.7,3.5-5,4.5-4,5.6l-0.9,0.8l-8.8-9.3c0.4-0.8,2-2.7,4.5-5.1&#xD;&#xA;&#x9;&#x9;c3.7-3.5,4.3-5.2,0.2-9.5L117.9,466.2L117.9,466.2z M124,460.4l3.4,3.6c2.7,2.8,4.8,3.7,6.8,1.9c2-1.9,1.4-4.3-0.6-6.5l-4.1-4.3&#xD;&#xA;&#x9;&#x9;C129.6,455.2,124,460.4,124,460.4z"/>
    <path id="path3150" fill="#0C2E82" d="M162.5,521.8l-6.6-4.8l1.9-3.4c-3.1,0.8-7.3,0.5-12.2-3c-8-5.8-11.4-16.2-3.4-27&#xD;&#xA;&#x9;&#x9;c7.3-10,18.5-12.3,28.6-4.9c7.5,5.5,10.7,13.7,6.3,22.3l-9.7-7.1c1.1-3.1,0.3-5.8-2.4-7.8c-4-2.9-8.6-0.7-12.6,4.8&#xD;&#xA;&#x9;&#x9;c-3.2,4.4-4.8,9.5,0.4,13.2c2.1,1.5,5.8,2,7.9,0.2l-4.5-3.3l4.9-6.8l14,10.2L162.5,521.8L162.5,521.8z"/>
    <path id="path3152" fill="#0C2E82" d="M172.9,527.6l16.9-34.7l28.3,13.8l-3.9,8.1l-16.9-8.2l-2.4,5l14.3,7l-3.9,8.1l-14.3-7&#xD;&#xA;&#x9;&#x9;l-2.7,5.4l17.6,8.6l-3.9,8.1L172.9,527.6L172.9,527.6z"/>
    <path id="path3154" fill="#0C2E82" d="M241,535.7l1.9-8.6l3.3-11.8l11.6,3.3l-10.5,37.1l-11.4-3.2l-7.5-23.9l-1.9,8.6l-3.3,11.8&#xD;&#xA;&#x9;&#x9;l-11.6-3.3l10.5-37.1l11.4,3.2L241,535.7L241,535.7z"/>
    <path id="path3156" fill="#0C2E82" d="M285.3,536.2c0-4-2.3-6.6-6.2-6.9c-4.4-0.4-7.4,3.1-8.1,10.5c-0.5,5.4,0.2,10.6,6.6,11.2&#xD;&#xA;&#x9;&#x9;c4.1,0.4,6.2-2.3,7.1-5.9l12.1,1.1c-2,9.8-9.7,15.1-19.8,14.2c-12.7-1.2-19.6-9.7-18.5-22.2c1.2-12.4,10.3-19.4,21-18.4&#xD;&#xA;&#x9;&#x9;c11.7,1.1,17.8,7.5,17.8,17.5L285.3,536.2L285.3,536.2z"/>
    <path id="path3158" fill="#0C2E82" d="M328.3,559.1l-12.6,1l-1.1-14l-16.3-23.3l14.1-1.1l7.7,12.5l5.6-13.6l13.9-1.1l-12.3,25.4&#xD;&#xA;&#x9;&#x9;L328.3,559.1z"/>
    <path id="path3160" fill="#0C2E82" d="M379.8,519.3c-0.6-1.2-1.6-1.7-2.6-1.9c-1-0.2-2.2,0-3.3,0.4c-2.6,0.9-3.5,2.1-3.1,3.4&#xD;&#xA;&#x9;&#x9;c1.9,5.5,21.7-5.1,26.2,8.2c2.9,8.5-2.8,15-12.8,18.4c-9.6,3.3-17.8-0.2-20.3-6.7l11.5-3.9c0.7,1.2,1.7,2,3,2.2&#xD;&#xA;&#x9;&#x9;c1.2,0.3,2.5,0.2,3.7-0.2c3-1,4.6-2.7,4.1-4.4c-1.9-5.5-21.6,5.4-26.3-8.5c-2.6-7.8,2.7-13.9,11.9-17c10.1-3.4,16.5,0.2,19.6,6.3&#xD;&#xA;&#x9;&#x9;L379.8,519.3z"/>
    <path id="path3162" fill="#0C2E82" d="M409.9,537l-18.2-34l27.7-14.9l4.3,7.9l-16.6,8.9l2.6,4.9l14-7.5l4.3,7.9l-14,7.5l2.9,5.3&#xD;&#xA;&#x9;&#x9;l17.2-9.2l4.3,7.9L409.9,537L409.9,537z"/>
    <path id="path3164" fill="#0C2E82" d="M448.2,498.1l8.3,10.6l-10,7.8L422.8,486l14.4-11.2c10.2-7.9,15.6-7.7,20.2-1.8&#xD;&#xA;&#x9;&#x9;c2.7,3.5,3.5,7.7,0.7,11.4c4.1-1.3,6.7-2.1,11.4,4.1c3.1,4,4,5.4,5.2,4.5l0.7,0.9l-10.1,7.9c-0.8-0.5-2.5-2.2-4.7-4.9&#xD;&#xA;&#x9;&#x9;c-3.1-4-4.8-4.8-9.4-1.1L448.2,498.1z M443,491.4l3.9-3.1c3.1-2.4,4.1-4.4,2.5-6.6c-1.7-2.2-4.2-1.9-6.5,0l-4.7,3.6L443,491.4&#xD;&#xA;&#x9;&#x9;L443,491.4z"/>
    <path id="path3166" fill="#0C2E82" d="M452.1,463.3l8.5-9.5l23.6,12.2l-14.3-22.4l8.5-9.5l19.6,35.8l-8.5,9.4L452.1,463.3&#xD;&#xA;&#x9;&#x9;L452.1,463.3z"/>
    <path id="path3168" fill="#0C2E82" d="M511.6,452.8l-31.8-21.9l7.2-10.4l31.8,21.9L511.6,452.8L511.6,452.8z"/>
    <path id="path3170" fill="#0C2E82" d="M514.8,400.9c-3.8-1.5-6.9-0.3-8.7,3.3c-2,4,0.2,8.1,6.8,11.4c4.8,2.5,9.9,3.7,12.8-2&#xD;&#xA;&#x9;&#x9;c1.8-3.6,0.2-6.6-2.9-8.7l5.5-10.8c8.4,5.5,10.5,14.6,5.9,23.7c-5.8,11.4-16.2,14.7-27.4,9c-11.1-5.7-14.2-16.7-9.3-26.3&#xD;&#xA;&#x9;&#x9;c5.3-10.5,13.5-13.7,22.8-10.2L514.8,400.9L514.8,400.9z"/>
    <path id="path3172" fill="#0C2E82" d="M544.9,391.6l-36.9-11.4l9.3-30l8.6,2.7l-5.5,18l5.3,1.6l4.7-15.2l8.6,2.7l-4.7,15.2l5.8,1.8&#xD;&#xA;&#x9;&#x9;l5.8-18.7l8.6,2.7L544.9,391.6L544.9,391.6z"/>
    <path id="path3180" fill="#0C2E82" d="M532.7,335.7l-0.4,1.1l-8.3-2.9l1.3-3.8c0.5-1.4,1.4-2.6,3.2-2c1.2,0.4,1.5,1.2,1.6,1.8&#xD;&#xA;&#x9;&#x9;c0.4-0.4,0.7-0.8,1.9-0.5l1.5,0.4c0.5,0.1,0.7,0.1,1-0.1l0.2,0.1l-0.5,1.4c-0.6,0-1.8-0.4-2.2-0.5c-0.7-0.2-1.5-0.4-2,1l-0.9,2.7&#xD;&#xA;&#x9;&#x9;L532.7,335.7L532.7,335.7z M528.1,334.1l0.9-2.6c0.3-0.8,0.4-1.8-0.9-2.2c-1.3-0.4-1.7,0.5-1.9,1l-1,2.8L528.1,334.1z"/>
    <g>
      <polyline id="polyline3020" fill="#DB0029" points="201.8,331.5 175.5,372.3 172.6,345.1 144.5,381.7 178.8,319.4 179.1,355.8 &#xD;&#xA;&#x9;&#x9;&#x9;196.6,318.9 &#x9;&#x9;"/>
      <polyline id="polyline3022" fill="#DB0029" points="274.5,246.3 301.8,206.2 304,233.6 333,197.7 297.2,259.1 297.8,222.6 &#xD;&#xA;&#x9;&#x9;&#x9;279.4,259.1 &#x9;&#x9;"/>
      <path id="path3026" fill="#FFFFFF" stroke="#DB0029" stroke-width="5.2049" stroke-linejoin="round" d="M287.9,296.2&#xD;&#xA;&#x9;&#x9;&#x9;c1.9-4.5,1.9-11.8,0-16.3l-47-114.4c-1.9-4.5-4.9-4.5-6.7,0l-47,114.4c-1.9,4.5-1.9,11.8,0,16.3l47,114.4c1.9,4.5,4.9,4.5,6.7,0&#xD;&#xA;&#x9;&#x9;&#x9;L287.9,296.2z"/>
      <path id="path3032" fill="#0C2E82" d="M237.5,172.9l44.3,107.9c1.6,4,1.6,10.4,0,14.4l-44.2,107.6l-44.3-107.6&#xD;&#xA;&#x9;&#x9;&#x9;c-1.6-4-1.6-10.4,0-14.4L237.5,172.9 M200.7,301.1h3.7V291h3.9c2.8,0,3,1.4,3,4.9c0,2.7,0.2,4,0.4,5.2h4.2v-0.7&#xD;&#xA;&#x9;&#x9;&#x9;c-0.8-0.4-0.8-1.4-0.8-5.1c0-4.8-0.8-5.6-2.3-6.5c1.8-0.9,2.8-3.3,2.8-6.2c0-2.2-0.9-7.3-5.7-7.3h-9.2V301.1L200.7,301.1z&#xD;&#xA;&#x9;&#x9;&#x9; M204.4,286.6v-6.9h4.7c2.2,0,2.6,2,2.6,3.4c0,2.6-1,3.5-2.9,3.5H204.4L204.4,286.6z M235.2,353.2h-3.7v22.1h12.4v-4h-8.7&#xD;&#xA;&#x9;&#x9;&#x9;L235.2,353.2L235.2,353.2z M258.7,301.1h3.7V291h3.9c2.8,0,3,1.4,3,4.9c0,2.7,0.2,4,0.4,5.2h4.2v-0.7c-0.8-0.4-0.8-1.4-0.8-5.1&#xD;&#xA;&#x9;&#x9;&#x9;c0-4.8-0.8-5.6-2.3-6.5c1.8-0.9,2.8-3.3,2.8-6.2c0-2.2-0.9-7.3-5.7-7.3h-9.2L258.7,301.1L258.7,301.1z M262.5,286.6v-6.9h4.7&#xD;&#xA;&#x9;&#x9;&#x9;c2.2,0,2.6,2,2.6,3.4c0,2.6-1,3.5-2.9,3.5H262.5z M233.9,212.5h6.5l1.1,4.9h4l-6.2-23.6H235l-6.3,23.6h3.9L233.9,212.5&#xD;&#xA;&#x9;&#x9;&#x9;L233.9,212.5z M237.1,199.1L237.1,199.1l2.2,9.3h-4.5L237.1,199.1L237.1,199.1z"/>
      <path id="path3176" fill="none" stroke="#FFFFFF" stroke-width="4.5304" stroke-linecap="square" d="M238.3,312.8&#xD;&#xA;&#x9;&#x9;&#x9;c-7-0.8-12.8-3.6-12.8-8.1c0-3.8,4.9-7.4,11.9-8.3 M237.8,263.1l0-36.5 M237.9,279.8c1,0.1,1.9,0.2,3,0.2c5.2,0,9.5-1.8,9.5-3.2&#xD;&#xA;&#x9;&#x9;&#x9;c0-1.4-4-3.2-9.2-3.2c-1.1,0-2.2,0.1-3.2,0.2 M237.7,302.2c-7.2-0.9-12.2-5-12.2-8.7c0-3.8,4.9-7.8,11.9-8.7 M237.7,302.3&#xD;&#xA;&#x9;&#x9;&#x9;c1,0.1,2.2,0.2,3.3,0.2c5.2,0,9.4-1.9,9.4-3.3c0-1.4-4.5-3.1-9.7-3.1c-1.1,0-2.2,0.2-3.2,0.3 M237.7,291c-7-0.8-12.1-4.8-12.1-8.7&#xD;&#xA;&#x9;&#x9;&#x9;c0-3.8,5.4-7.7,12.4-8.6 M237.7,291c1,0.1,2.1,0.1,3.2,0.1c5.5,0.1,9.5-1.8,9.5-3.2c0-1.4-4.5-3.3-9.7-3.3c-1.1,0-2.2,0.1-3.2,0.2&#xD;&#xA;&#x9;&#x9;&#x9; M237.9,279.8c-7-0.8-12.3-4.7-12.3-8.6c0-3.9,5.2-7.1,12.1-7.9 M227.2,226.3h21.2l-10.6,22.1L227.2,226.3z M238.5,312.9l0,14.4"/>
      <line id="line3094" fill="none" stroke="#FFFFFF" stroke-width="3.0207" stroke-linecap="round" x1="228.1" y1="332.4" x2="249.2" y2="332.4"/>
      <line id="line3096" fill="none" stroke="#FFFFFF" stroke-width="3.0207" stroke-linecap="round" x1="230.5" y1="336.9" x2="247.1" y2="336.9"/>
      <line id="line3098" fill="none" stroke="#FFFFFF" stroke-width="3.0207" stroke-linecap="round" x1="232.7" y1="341.4" x2="244.8" y2="341.4"/>
      <line id="line3100" fill="none" stroke="#FFFFFF" stroke-width="3.0207" stroke-linecap="round" x1="235.5" y1="346" x2="242" y2="346"/>
      <line id="line3102" fill="none" stroke="#FFFFFF" stroke-width="3.0207" stroke-linecap="round" x1="251.4" y1="328.1" x2="225.7" y2="328.1"/>
    </g>
    <circle id="circle3182" fill="none" stroke="#0C2E82" stroke-width="0.6889" stroke-miterlimit="16.9681" cx="528.9" cy="332.1" r="9"/>
  </g>
</svg>